<?xml version="1.0" encoding="UTF-8" standalone="no"?>
<!-- Created with Inkscape (http://www.inkscape.org/) -->
<svg
   xmlns:dc="http://purl.org/dc/elements/1.1/"
   xmlns:cc="http://creativecommons.org/ns#"
   xmlns:rdf="http://www.w3.org/1999/02/22-rdf-syntax-ns#"
   xmlns:svg="http://www.w3.org/2000/svg"
   xmlns="http://www.w3.org/2000/svg"
   xmlns:sodipodi="http://sodipodi.sourceforge.net/DTD/sodipodi-0.dtd"
   xmlns:inkscape="http://www.inkscape.org/namespaces/inkscape"
   id="svg3839"
   sodipodi:version="0.32"
   inkscape:version="0.46"
   width="562.89001"
   height="41.869999"
   version="1.0"
   sodipodi:docname="PVV.svg"
   inkscape:output_extension="org.inkscape.output.svg.inkscape">
  <metadata
     id="metadata3844">
    <rdf:RDF>
      <cc:Work
         rdf:about="">
        <dc:format>image/svg+xml</dc:format>
        <dc:type
           rdf:resource="http://purl.org/dc/dcmitype/StillImage" />
      </cc:Work>
    </rdf:RDF>
  </metadata>
  <defs
     id="defs3842">
    <inkscape:perspective
       sodipodi:type="inkscape:persp3d"
       inkscape:vp_x="0 : 526.18109 : 1"
       inkscape:vp_y="0 : 1000 : 0"
       inkscape:vp_z="744.09448 : 526.18109 : 1"
       inkscape:persp3d-origin="372.04724 : 350.78739 : 1"
       id="perspective3846" />
    <clipPath
       id="clipPath2595"
       clipPathUnits="userSpaceOnUse">
      <path
         id="path2597"
         d="M 189.922,179.859 L 453.544,179.859 L 453.544,269.858 L 189.922,269.858 L 189.922,179.859 z" />
    </clipPath>
    <clipPath
       id="clipPath2579"
       clipPathUnits="userSpaceOnUse">
      <path
         id="path2581"
         d="M 0,0 L 453.543,0 L 453.543,680.315 L 0,680.315 L 0,0 z" />
    </clipPath>
    <inkscape:perspective
       id="perspective2563"
       inkscape:persp3d-origin="372.04724 : 350.78739 : 1"
       inkscape:vp_z="744.09448 : 526.18109 : 1"
       inkscape:vp_y="0 : 1000 : 0"
       inkscape:vp_x="0 : 526.18109 : 1"
       sodipodi:type="inkscape:persp3d" />
    <clipPath
       id="clipPath2504"
       clipPathUnits="userSpaceOnUse">
      <path
         id="path2506"
         d="M 276.065,188.953 L 581.102,188.953 L 581.102,536.456 L 276.065,536.456 L 276.065,188.953 z" />
    </clipPath>
    <inkscape:perspective
       id="perspective2460"
       inkscape:persp3d-origin="372.04724 : 350.78739 : 1"
       inkscape:vp_z="744.09448 : 526.18109 : 1"
       inkscape:vp_y="0 : 1000 : 0"
       inkscape:vp_x="0 : 526.18109 : 1"
       sodipodi:type="inkscape:persp3d" />
  </defs>
  <sodipodi:namedview
     inkscape:window-height="741"
     inkscape:window-width="1225"
     inkscape:pageshadow="2"
     inkscape:pageopacity="0.0"
     guidetolerance="10.0"
     gridtolerance="10.0"
     objecttolerance="10.0"
     borderopacity="1.0"
     bordercolor="#666666"
     pagecolor="#ffffff"
     id="base"
     showgrid="false"
     inkscape:zoom="19.316543"
     inkscape:cx="-1.1389201"
     inkscape:cy="27.127007"
     inkscape:window-x="1281"
     inkscape:window-y="161"
     inkscape:current-layer="svg3839"
     showguides="true"
     inkscape:guide-bbox="true" />
  <g
     id="g2715"
     style="fill:#000000;fill-opacity:1"
     transform="matrix(1.7918671,0,0,-1.7918671,-355.94423,1238.767)">
    <g
       id="g2673"
       transform="translate(377.9084,674.0011)"
       style="fill:#000000;fill-opacity:1">
      <path
         d="M 0,0 L 10.002,0 L 10.002,1.986 L 2.404,1.986 L 2.404,7.661 L 9.038,7.661 L 9.038,9.616 L 2.404,9.616 L 2.404,14.425 L 9.841,14.425 L 9.841,16.412 L 0,16.412 L 0,0 z M -15.674,1.954 L -15.674,14.489 L -13.817,14.489 C -8.846,14.489 -6.508,12.758 -6.508,8.336 C -6.508,3.976 -9.007,1.954 -13.689,1.954 L -15.674,1.954 z M -18.079,0 L -13.881,0 C -7.018,0 -4.009,3.59 -4.009,8.431 C -4.009,13.272 -6.988,16.412 -13.752,16.412 L -18.079,16.412 L -18.079,0 z M -38.273,9.168 L -38.273,14.489 L -35.997,14.489 C -33.499,14.489 -32.344,13.689 -32.344,11.86 C -32.344,10.095 -33.402,9.168 -35.838,9.168 L -38.273,9.168 z M -40.677,0 L -38.273,0 L -38.273,7.341 L -37.986,7.341 C -36.928,7.341 -36.544,7.146 -34.78,4.712 L -31.382,0 L -28.563,0 L -32.665,5.448 C -33.688,6.797 -34.236,7.372 -34.555,7.597 L -34.555,7.661 C -31.96,7.887 -29.875,9.136 -29.875,11.956 C -29.875,14.872 -32.023,16.412 -35.773,16.412 L -40.677,16.412 L -40.677,0 z M -53.245,1.7 C -57.221,1.7 -59.27,4.742 -59.27,8.27 C -59.27,11.735 -57.154,14.744 -53.214,14.744 C -49.237,14.744 -47.219,11.701 -47.219,8.173 C -47.219,4.68 -49.302,1.7 -53.245,1.7 M -53.214,-0.289 C -47.827,-0.289 -44.686,3.783 -44.686,8.27 C -44.686,12.758 -47.859,16.733 -53.245,16.733 C -58.663,16.733 -61.802,12.694 -61.802,8.173 C -61.802,3.685 -58.599,-0.289 -53.214,-0.289 M -73.281,1.7 C -77.253,1.7 -79.307,4.742 -79.307,8.27 C -79.307,11.735 -77.19,14.744 -73.245,14.744 C -69.273,14.744 -67.253,11.701 -67.253,8.173 C -67.253,4.68 -69.335,1.7 -73.281,1.7 M -73.245,-0.289 C -67.863,-0.289 -64.719,3.783 -64.719,8.27 C -64.719,12.758 -67.892,16.733 -73.281,16.733 C -78.695,16.733 -81.839,12.694 -81.839,8.173 C -81.839,3.685 -78.632,-0.289 -73.245,-0.289 M -92.258,0 L -89.918,0 L -83.537,16.412 L -85.846,16.412 L -90.012,5.29 C -90.494,4.037 -91.006,2.467 -91.006,2.467 L -91.07,2.467 C -91.07,2.467 -91.583,4.071 -92.065,5.29 L -96.391,16.412 L -98.892,16.412 L -92.258,0 z M -113.317,-4.777 C -110.656,-4.777 -109.214,-3.173 -109.214,-0.258 L -109.214,16.412 L -111.617,16.412 L -111.617,0.095 C -111.617,-1.828 -112.257,-2.691 -113.636,-2.691 C -114.118,-2.691 -114.502,-2.565 -114.693,-2.469 L -115.046,-4.519 C -114.791,-4.649 -114.214,-4.777 -113.317,-4.777 M -119.696,0 L -117.291,0 L -117.291,16.412 L -119.696,16.412 L -119.696,0 z M -130.497,0 L -128.062,0 L -128.062,14.425 L -123.028,14.425 L -123.028,16.412 L -135.531,16.412 L -135.531,14.425 L -130.497,14.425 L -130.497,0 z M -146.362,9.168 L -146.362,14.489 L -144.087,14.489 C -141.585,14.489 -140.432,13.689 -140.432,11.86 C -140.432,10.095 -141.489,9.168 -143.926,9.168 L -146.362,9.168 z M -148.766,0 L -146.362,0 L -146.362,7.341 L -146.073,7.341 C -145.017,7.341 -144.631,7.146 -142.868,4.712 L -139.47,0 L -136.649,0 L -140.751,5.448 C -141.777,6.797 -142.322,7.372 -142.643,7.597 L -142.643,7.661 C -140.046,7.887 -137.964,9.136 -137.964,11.956 C -137.964,14.872 -140.111,16.412 -143.864,16.412 L -148.766,16.412 L -148.766,0 z M -156.681,5.768 L -162.998,5.768 L -160.915,11.187 C -160.403,12.533 -159.887,14.136 -159.887,14.136 L -159.824,14.136 C -159.824,14.136 -159.343,12.597 -158.798,11.187 L -156.681,5.768 z M -163.768,3.75 L -155.914,3.75 L -154.44,0 L -151.938,0 L -158.606,16.412 L -160.946,16.412 L -167.551,0 L -165.211,0 L -163.768,3.75 z M -176.302,8.336 L -176.302,14.489 L -174.186,14.489 C -171.3,14.489 -170.179,13.463 -170.179,11.477 C -170.179,9.294 -171.429,8.336 -174.248,8.336 L -176.302,8.336 z M -178.706,0 L -176.302,0 L -176.302,6.378 L -174.248,6.378 C -170.21,6.378 -167.775,8.141 -167.775,11.572 C -167.775,14.905 -170.403,16.412 -173.962,16.412 L -178.706,16.412 L -178.706,0 z"
         style="fill:#000000;fill-opacity:1;fill-rule:nonzero;stroke:none"
         id="path2675" />
    </g>
    <g
       id="g2677"
       transform="translate(500.7489,677.3649)"
       style="fill:#000000;fill-opacity:1">
      <path
         d="M 0,0 L 0,10.035 L 1.47,10.035 C 5.256,10.035 6.988,8.592 6.988,5.097 C 6.988,1.67 5.192,0 1.634,0 L 0,0 z M -4.299,-3.364 L 1.281,-3.364 C 8.269,-3.364 11.472,0.355 11.472,5.259 C 11.472,10.13 8.334,13.402 1.442,13.402 L -4.299,13.402 L -4.299,-3.364 z M -13.176,-3.364 L -8.883,-3.364 L -8.883,13.402 L -13.176,13.402 L -13.176,-3.364 z M -28.403,-3.364 L -17.217,-3.364 L -17.217,-0.032 L -24.203,-0.032 L -24.203,3.689 L -18.112,3.689 L -18.112,6.765 L -24.203,6.765 L -24.203,10.067 L -17.374,10.067 L -17.374,13.402 L -28.403,13.402 L -28.403,-3.364 z M -48.565,-3.364 L -44.27,-3.364 L -44.27,3.56 L -37.089,3.56 L -37.089,-3.364 L -32.859,-3.364 L -32.859,13.402 L -37.089,13.402 L -37.089,7.021 L -44.27,7.021 L -44.27,13.402 L -48.565,13.402 L -48.565,-3.364 z M -58.374,-8.846 C -55.102,-8.846 -52.991,-7.018 -52.991,-3.492 L -52.991,13.402 L -57.318,13.402 L -57.318,-3.012 C -57.318,-4.677 -57.894,-5.288 -59.338,-5.288 C -59.848,-5.288 -60.396,-5.127 -60.65,-5.032 L -61.292,-8.365 C -60.682,-8.588 -59.816,-8.846 -58.374,-8.846 M -66.775,-3.364 L -62.482,-3.364 L -62.482,13.402 L -66.775,13.402 L -66.775,-3.364 z M -79.694,6.06 L -79.694,10.258 L -78.028,10.258 C -76.074,10.258 -75.24,9.555 -75.24,8.143 C -75.24,6.765 -76.074,6.06 -77.837,6.06 L -79.694,6.06 z M -83.992,-3.364 L -79.694,-3.364 L -79.694,3.175 L -79.47,3.175 C -78.732,3.175 -78.284,3.014 -77.257,1.41 L -74.211,-3.364 L -69.629,-3.364 L -72.673,1.284 C -73.635,2.728 -74.406,3.526 -74.884,3.881 L -74.884,3.911 C -72.931,4.327 -70.973,5.579 -70.973,8.431 C -70.973,11.703 -73.443,13.402 -77.774,13.402 L -83.992,13.402 L -83.992,-3.364 z M -97.262,-3.364 L -93.189,-3.364 L -86.683,13.402 L -90.881,13.402 L -94.184,3.881 C -94.631,2.599 -95.018,1.155 -95.018,1.122 L -95.081,1.122 C -95.113,1.249 -95.497,2.599 -95.944,3.881 L -99.408,13.402 L -104.025,13.402 L -97.262,-3.364 z"
         style="fill:#000000;fill-opacity:1;fill-rule:nonzero;stroke:none"
         id="path2679" />
    </g>
  </g>
</svg>
