<?xml version="1.0" encoding="UTF-8" standalone="no"?>
<svg
   xmlns:dc="http://purl.org/dc/elements/1.1/"
   xmlns:cc="http://creativecommons.org/ns#"
   xmlns:rdf="http://www.w3.org/1999/02/22-rdf-syntax-ns#"
   xmlns:svg="http://www.w3.org/2000/svg"
   xmlns="http://www.w3.org/2000/svg"
   viewBox="0 0 477.97333 152.44"
   height="152.44"
   width="477.97333"
   xml:space="preserve"
   id="svg2"
   version="1.1"><metadata
     id="metadata8"><rdf:RDF><cc:Work
         rdf:about=""><dc:format>image/svg+xml</dc:format><dc:type
           rdf:resource="http://purl.org/dc/dcmitype/StillImage" /></cc:Work></rdf:RDF></metadata><defs
     id="defs6" /><g
     transform="matrix(1.3333333,0,0,-1.3333333,0,152.44)"
     id="g10"><g
       transform="scale(0.1)"
       id="g12"><path
         id="path14"
         style="fill:#050301;fill-opacity:1;fill-rule:nonzero;stroke:none"
         d="m 152.168,632.211 c -63.8086,0 -57.9219,-135.473 -57.9219,-170.805 0,-37.304 -5.8867,-175.703 60.8589,-175.703 66.774,0 56.965,130.547 56.965,170.801 0,40.234 0,175.707 -59.902,175.707 z M 304.348,207.148 C 304.348,30.4492 251.332,0 153.148,0 63.8398,0 6.87109,51.0508 6.87109,143.359 V 157.09 H 96.2266 c -1.9805,-35.352 12.7424,-74.6095 58.8784,-74.6095 61.852,0 55.965,59.8595 55.965,105.0395 v 82.46 h -1.953 C 196.348,229.727 165.914,201.25 120.754,203.223 2.95313,203.223 0,371.094 0,455.527 0,535.039 -1.96094,714.68 118.801,714.68 c 49.09,0 70.676,-27.481 90.316,-66.746 l 1.953,1.961 v 56.933 h 93.278 v -499.68" /><path
         id="path16"
         style="fill:#050301;fill-opacity:1;fill-rule:nonzero;stroke:none"
         d="m 482.016,645.969 h 1.964 c 21.586,43.183 53.985,68.711 105.036,68.711 v -91.289 l -15.723,0.976 c -68.707,0 -90.313,-38.273 -90.313,-101.125 V 211.074 h -93.253 v 495.754 h 92.289 v -60.859" /><path
         id="path18"
         style="fill:#050301;fill-opacity:1;fill-rule:nonzero;stroke:none"
         d="M 746.098,706.828 V 396.621 c 0,-44.18 -5.918,-108.965 56.922,-108.965 61.835,0 54.964,59.883 54.964,104.043 v 315.129 h 92.289 V 372.09 c 0,-102.11 -30.433,-168.867 -143.335,-168.867 -134.481,0 -153.137,75.605 -153.137,188.476 v 315.129 h 92.297" /><path
         id="path20"
         style="fill:#050301;fill-opacity:1;fill-rule:nonzero;stroke:none"
         d="m 1127.95,649.895 h 1.98 c 20.61,40.238 51.05,64.785 100.12,64.785 98.17,0 101.12,-87.352 101.12,-162.942 V 211.074 h -92.29 v 342.617 c 0,34.375 -5.9,78.52 -54.98,78.52 -60.84,0 -55.95,-69.672 -55.95,-111.898 V 211.074 h -92.29 v 495.754 h 92.29 v -56.933" /><path
         id="path22"
         style="fill:#050301;fill-opacity:1;fill-rule:nonzero;stroke:none"
         d="m 1507.84,211.074 h -92.26 v 814.806 h 92.26 V 211.074" /><path
         id="path24"
         style="fill:#050301;fill-opacity:1;fill-rule:nonzero;stroke:none"
         d="m 1684.55,211.074 h -92.27 v 495.754 h 92.27 z m -107,645.949 c 0,33.379 27.48,60.879 61.84,60.879 32.39,0 60.87,-27.5 60.87,-60.879 0,-34.351 -28.48,-61.835 -60.87,-61.835 -34.36,0 -61.84,27.484 -61.84,61.835" /><path
         id="path26"
         style="fill:#050301;fill-opacity:1;fill-rule:nonzero;stroke:none"
         d="m 1977.06,459.453 c 0,40.254 7.88,172.758 -60.87,172.758 -61.83,0 -57.93,-133.481 -57.93,-172.758 0,-39.277 -3.9,-172.773 57.93,-173.75 68.75,0.977 60.87,133.496 60.87,173.75 z m -208.1,566.427 h 92.26 V 651.848 h 1.96 c 18.66,38.285 41.26,62.832 88.36,62.832 116.84,0 119.75,-166.887 119.75,-249.348 0,-80.488 -1.95,-262.109 -116.8,-262.109 -53.01,0 -72.65,28.476 -91.31,71.679 h -1.96 v -63.828 h -92.26 v 814.806" /><path
         id="path28"
         style="fill:#050301;fill-opacity:1;fill-rule:nonzero;stroke:none"
         d="m 2332.41,506.582 c 0,38.281 0,125.629 -55.95,125.629 -57.92,0 -53.97,-87.348 -53.97,-125.629 z m -109.92,-65.781 c 0,-41.25 -2,-155.098 57.92,-155.098 49.04,0 57.93,53.985 57.93,92.266 h 85.39 c 0,-91.289 -40.26,-174.746 -144.32,-174.746 -138.41,0 -151.19,147.265 -151.19,252.304 0,101.114 11.78,259.153 148.24,259.153 134.5,0 150.18,-157.063 150.18,-259.153 v -14.726 h -204.15" /><path
         id="path30"
         style="fill:#050301;fill-opacity:1;fill-rule:nonzero;stroke:none"
         d="m 2589.62,645.969 h 1.96 c 21.61,43.183 54.01,68.711 105.06,68.711 v -91.289 l -15.74,0.976 c -68.71,0 -90.32,-38.273 -90.32,-101.125 V 211.074 h -93.23 v 495.754 h 92.27 v -60.859" /><path
         id="path32"
         style="fill:#050301;fill-opacity:1;fill-rule:nonzero;stroke:none"
         d="m 2949.71,459.453 c 0,39.277 3.91,172.758 -57.91,172.758 -68.71,0 -60.88,-132.504 -60.88,-172.758 0,-41.25 -7.83,-173.75 60.88,-173.75 61.82,0 57.91,134.473 57.91,173.75 z m -2.95,-184.551 h -1.96 c -18.66,-43.203 -38.27,-71.679 -91.27,-71.679 -114.89,0 -116.84,181.621 -116.84,262.109 0,82.461 2.95,249.348 119.76,249.348 43.22,0 71.66,-26.504 88.35,-62.832 h 1.96 v 54.98 h 92.26 V 211.074 h -92.26 v 63.828" /><path
         id="path34"
         style="fill:#050301;fill-opacity:1;fill-rule:nonzero;stroke:none"
         d="m 3215.74,211.074 h -92.27 v 814.806 h 92.27 V 211.074" /><path
         id="path36"
         style="fill:#050301;fill-opacity:1;fill-rule:nonzero;stroke:none"
         d="m 3490.59,506.582 c 0,38.281 0,125.629 -55.96,125.629 -57.91,0 -54,-87.348 -54,-125.629 z m -109.96,-65.781 c 0,-41.25 -1.96,-155.098 57.92,-155.098 49.09,0 57.91,53.985 57.91,92.266 h 85.45 c 0,-91.289 -40.25,-174.746 -144.31,-174.746 -138.42,0 -151.19,147.265 -151.19,252.304 0,101.114 11.79,259.153 148.22,259.153 134.49,0 150.19,-157.063 150.19,-259.153 v -14.726 h -204.19" /><path
         id="path38"
         style="fill:#9ad42b;fill-opacity:1;fill-rule:nonzero;stroke:none"
         d="m 1111.1,1138.9 c -26.26,0.05 -38.18,4.14 -69.13,4.35 -97.751,0.7 -200.251,-13.05 -255.298,-81.71 -72.449,-90.36 -96.203,-258.845 -171.203,-306.97 50,14.375 80,66.25 169.66,74.848 67.406,6.465 136.824,-1.516 195.254,41.531 59.947,44.555 89.167,126.035 102.997,196.741 4.63,29.22 9.87,48.18 28.34,71.2 l -0.62,0.01" /><path
         id="path40"
         style="fill:#ffffff;fill-opacity:1;fill-rule:nonzero;stroke:none"
         d="m 1106.25,1136.6 c 0,0 -15.78,-0.83 -75,-41.87 0,0 -71.82,-50.37 -148.07,-111.832 C 822.102,933.672 673.219,800.551 673.219,800.551 659.855,788.188 642.105,774.66 643.805,772.484 c 0.984,-1.265 16.683,12.813 17.597,13.524 0,0 154.828,123.836 233.028,186.062 38.75,30.83 109.02,91.23 152.29,123.75 37.29,28.02 59.53,40.78 59.53,40.78" /></g></g></svg>