<svg xmlns="http://www.w3.org/2000/svg" id="logo_svg__Laag_2" data-name="Laag 2" viewBox="0 0 542.27 215.72"><defs><style>.logo_svg__cls-2{fill:#181d37}</style></defs><g id="logo_svg__Laag_1-2" data-name="Laag 1"><path d="M249.25 0h5.58v215.72h-5.58zm85.96 15.09c-3.67.21-5.1 1.14-5.44 4.42-.2 2.21-.61 5.56-.61 11.84v28.31h-3.26l-28.29-35.51h-.2v16.04c0 6.27.34 9.41.54 11.55.34 3.14 1.5 4.49 6.53 4.71v2.5h-16.66v-2.5c3.81-.29 5.37-1.43 5.64-4.49.27-2.35.68-5.49.68-11.76V25.3c0-4.63-.14-5.99-1.43-7.63-1.22-1.71-2.79-2.28-5.64-2.57v-2.5h12.58l25.97 31.3h.27V31.35c0-6.27-.41-9.63-.54-11.69-.34-3.07-1.77-4.28-6.73-4.56v-2.5h16.59v2.5Zm3.48 43.85v-2.28c3.94-.5 4.35-.78 4.35-5.85V36.69c0-4.71-.48-4.92-3.74-5.49v-2.07c4.08-.5 8.57-1.43 12.38-2.57V50.8c0 4.92.34 5.28 4.42 5.85v2.28h-17.41Zm3.33-41.86c0-2.85 2.24-4.99 4.83-4.99 2.72 0 4.83 2.14 4.83 4.99s-2.11 4.99-4.9 4.99c-2.52 0-4.76-2.28-4.76-4.99Zm43.52 34.81c-4.15 6.49-9.45 7.92-12.24 7.92-9.04 0-14.07-7.06-14.07-15.26 0-5.42 2.18-9.98 5.03-12.91 2.99-3.14 6.73-5.06 10.47-5.06 6.26 0 11.08 5.63 11.02 11.48 0 1.43-.41 2.35-1.97 2.57-1.22.14-9.52.86-16.18 1.14.34 7.63 4.35 11.48 9.18 11.48 2.65 0 5.17-.93 7.55-3.07l1.22 1.71Zm-17.61-13.48c2.79-.07 5.3-.14 8.09-.21 1.02-.07 1.36-.21 1.43-1.43 0-3.64-1.5-7.34-4.15-7.34s-4.96 3.28-5.37 8.98Zm56.23 18.82c-4.01.57-8.09 1.5-12.44 2.57l-.54-.5v-4.28c-1.22 1-1.9 1.71-3.4 2.64-1.97 1.35-3.81 2.14-5.92 2.14-5.71 0-8.91-3.85-8.91-10.12V34.92c0-3.42-.27-3.71-3.74-4.63v-2.07c4.15-.21 8.29-.64 12.58-1.28-.14 3-.2 6.63-.2 10.77v10.34c0 4.63 2.31 6.27 4.69 6.27 1.84 0 3.33-.43 4.9-2V34.99c0-3.64-.2-3.92-4.35-4.71v-2.07c4.22-.21 8.5-.57 12.99-1.28V50.1c0 3.78.41 4.42 2.86 4.71l1.5.14v2.28Zm48.82-27.52c-3.26.57-3.74 1.14-5.17 4.85-2.52 6.63-5.37 15.19-8.7 25.17h-2.58c-2.65-6.7-5.44-13.41-7.96-19.89-2.58 6.63-4.96 13.12-7.55 19.89h-2.58c-2.72-8.77-5.64-17.54-8.16-25.53-1.16-3.42-1.77-4.14-4.62-4.49v-2.28h16.79v2.28c-3.88.64-4.35 1.28-3.6 3.71 1.36 4.56 2.72 9.41 4.01 13.9h.14c2.38-6.2 4.62-12.76 7.07-19.54h2.65c2.45 6.56 5.03 13.05 7.68 19.68h.14c1.09-3.35 3.2-10.48 3.81-13.55.61-2.71.27-3.57-3.94-4.21v-2.28h12.58v2.28ZM313.73 95.22c-1.43-4.49-3.94-9.77-9.52-9.77-3.81 0-6.59 3-6.59 7.06s2.45 6.2 8.43 9.34c7.14 3.64 12.04 7.63 12.04 14.69 0 8.13-6.6 14.47-16.52 14.47-2.45 0-4.83-.36-6.87-1-1.9-.57-3.2-1.14-4.15-1.57-.61-1.78-1.5-7.77-1.97-12.12l2.38-.78c1.36 4.56 5.37 12.55 11.9 12.55 4.15 0 6.8-3 6.8-7.49 0-4.21-2.99-6.85-8.09-9.7-7-3.71-11.83-7.56-11.83-14.4 0-7.84 5.92-13.98 15.57-13.98 4.35 0 8.23 1.43 9.45 1.92.27 2.64.75 5.78 1.29 10.2l-2.31.57Zm40.73 18.4c0 11.48-7.82 17.18-15.77 17.18-10.67 0-15.91-8.13-15.91-15.9 0-11.48 8.63-17.33 16.18-17.33 9.52 0 15.5 7.49 15.5 16.04Zm-21.96-1.28c0 8.77 2.65 15.69 6.94 15.69 2.58 0 5.3-1.78 5.3-12.26 0-9.91-2.38-15.4-6.66-15.4-2.86 0-5.58 3.78-5.58 11.98Zm52.76 10.76c-3.13 4.63-7.55 7.7-11.69 7.7-9.32 0-14.75-7.42-14.75-15.19 0-5.21 2.52-10.27 6.87-13.62 4.42-3.42 8.91-4.42 11.56-4.42 2.45 0 4.69.78 5.85 1.78.95.71 1.22 1.57 1.22 2.57 0 2.07-1.77 3.92-2.92 3.92-.48 0-.88-.21-1.5-.78-2.86-2.57-4.96-3.71-6.87-3.71-2.72 0-5.71 2.71-5.71 10.34 0 9.48 6.46 12.62 9.38 12.62s4.83-.71 7.28-2.92l1.29 1.71Zm2.66 6.84v-2.28c3.94-.5 4.35-.78 4.35-5.85v-14.12c0-4.71-.48-4.92-3.74-5.49v-2.07c4.08-.5 8.57-1.43 12.37-2.57v24.24c0 4.92.34 5.28 4.42 5.85v2.28h-17.41Zm3.33-41.86c0-2.85 2.24-4.99 4.83-4.99 2.72 0 4.83 2.14 4.83 4.99s-2.11 4.99-4.89 4.99c-2.52 0-4.76-2.28-4.76-4.99Zm39.37 42.72c-1.83 0-3.26-.64-4.15-1.5-.95-.86-1.43-1.78-1.77-2.64-2.58 1.78-5.78 4.14-7.07 4.14-5.78 0-9.18-4.71-9.18-9.13 0-3.71 1.63-5.49 5.17-6.84 4.01-1.57 9.25-3.28 10.81-4.71v-2.14c0-4.49-1.63-6.99-4.15-6.99-.88 0-1.63.43-2.24 1.28-.82 1-1.43 2.71-1.97 4.92-.48 1.85-1.43 2.42-2.86 2.42-1.77 0-4.21-1.71-4.21-3.57 0-1.28.82-2.21 2.38-3.42 2.58-1.85 7.41-4.35 11.29-5.06 2.79 0 4.83.64 6.66 2.07 2.92 2.35 3.54 5.42 3.54 9.41v11.77c0 3.28 1.09 4.21 2.18 4.21.82 0 1.56-.29 2.31-.57l.68 2.28-7.41 4.06Zm-6.19-17.9c-1.22.64-2.38 1.43-3.74 2.21-2.11 1.14-3.2 2.42-3.2 4.85 0 3.99 2.52 5.49 4.08 5.49.95 0 1.7-.29 2.86-1.14V112.9Zm38.28 17.9c-1.84 0-3.26-.64-4.15-1.5-.95-.86-1.43-1.78-1.77-2.64-2.58 1.78-5.78 4.14-7.07 4.14-5.78 0-9.18-4.71-9.18-9.13 0-3.71 1.63-5.49 5.17-6.84 4.01-1.57 9.25-3.28 10.81-4.71v-2.14c0-4.49-1.63-6.99-4.15-6.99-.88 0-1.63.43-2.24 1.28-.82 1-1.43 2.71-1.97 4.92-.48 1.85-1.43 2.42-2.86 2.42-1.77 0-4.22-1.71-4.22-3.57 0-1.28.82-2.21 2.38-3.42 2.58-1.85 7.41-4.35 11.29-5.06 2.79 0 4.83.64 6.66 2.07 2.92 2.35 3.54 5.42 3.54 9.41v11.77c0 3.28 1.09 4.21 2.18 4.21.82 0 1.56-.29 2.31-.57l.68 2.28-7.41 4.06Zm-6.19-17.9c-1.22.64-2.38 1.43-3.74 2.21-2.11 1.14-3.2 2.42-3.2 4.85 0 3.99 2.52 5.49 4.08 5.49.95 0 1.7-.29 2.86-1.14V112.9Zm14.76 17.04v-2.28c4.01-.64 4.42-1 4.42-5.56V89.44c0-4.28-.34-4.49-4.08-4.99v-2.07c3.88-.5 8.91-1.43 12.71-2.57v42.28c0 4.78.41 5.06 4.56 5.56v2.28h-17.61Zm-140.42 58.88c-.88 3.42-2.65 8.84-3.81 11.34-1.77.43-8.02 1.85-12.65 1.85-18.09 0-25.63-12.33-25.63-23.67 0-14.62 10.74-24.81 26.99-24.81 5.51 0 10.54 1.5 12.37 1.92.61 3.92 1.09 7.2 1.56 11.69l-2.52.5c-2.24-8.49-7.48-10.98-12.71-10.98-9.86 0-15.3 9.77-15.3 20.25 0 13.12 6.73 21.75 15.98 21.75 5.64 0 9.86-3.78 13.33-10.98l2.38 1.14Zm35.23-4.2c0 11.48-7.82 17.18-15.77 17.18-10.67 0-15.91-8.13-15.91-15.9 0-11.48 8.63-17.33 16.18-17.33 9.52 0 15.5 7.49 15.5 16.04Zm-21.96-1.28c0 8.77 2.65 15.69 6.94 15.69 2.58 0 5.3-1.78 5.3-12.26 0-9.91-2.38-15.4-6.66-15.4-2.86 0-5.58 3.78-5.58 11.98Zm45.83 17.6v-2.28c2.86-.5 3.2-.71 3.2-5.78v-12.12c0-5.13-2.24-6.7-4.69-6.7-1.7 0-3.26.78-5.03 2.21v17.25c0 4.42.41 4.63 3.2 5.13v2.28h-16.39v-2.28c4.22-.64 4.56-.71 4.56-5.49V178.4c0-4.28-.34-4.56-3.67-5.21v-2.07c3.88-.5 8.3-1.5 12.31-2.71v5.28c1.36-1 2.72-2.14 4.21-3.14 2.04-1.35 3.33-2 5.3-2 5.51 0 8.91 4.28 8.91 11.41v13.48c0 4.49.41 4.63 3.94 5.21v2.28h-15.84Zm34.27.08c-1.22.5-2.31.78-2.79.78-5.24 0-8.29-2.57-8.29-8.98v-19.96h-4.28l-.34-.86 1.9-2.57h2.72v-5.21l7.68-5.56.95.43v10.34h6.66c.82.78.68 2.85-.41 3.42h-6.25v17.61c0 5.56 2.45 6.2 3.88 6.2 1.16 0 2.24-.29 3.4-.86l.68 2.5-5.51 2.71Zm21.76-24.96c2.45-4.42 5.1-7.49 7.62-7.49 2.72 0 4.56 2 4.56 4.42 0 2.57-1.5 4.56-3.33 5.28-.95.36-1.63.14-2.11-.29-1.16-1-1.97-1.5-3.13-1.5-1.29 0-2.65.93-3.81 3.71v13.26c0 4.42.41 4.71 5.64 5.21v2.28H432.8v-2.28c3.67-.43 4.35-.78 4.35-5.21v-15.54c0-3.64-.54-3.92-3.67-4.71v-2c4.08-.57 8.09-1.35 12.31-2.71v7.56h.2Zm36.92 25.74c-1.83 0-3.26-.64-4.15-1.5-.95-.86-1.43-1.78-1.77-2.64-2.58 1.78-5.78 4.14-7.07 4.14-5.78 0-9.18-4.71-9.18-9.13 0-3.71 1.63-5.49 5.17-6.84 4.01-1.57 9.25-3.28 10.81-4.71v-2.14c0-4.49-1.63-6.99-4.15-6.99-.88 0-1.63.43-2.24 1.28-.82 1-1.43 2.71-1.97 4.92-.48 1.85-1.43 2.42-2.86 2.42-1.77 0-4.21-1.71-4.21-3.57 0-1.28.82-2.21 2.38-3.42 2.58-1.85 7.41-4.35 11.29-5.06 2.79 0 4.83.64 6.66 2.07 2.92 2.35 3.54 5.42 3.54 9.41v11.77c0 3.28 1.09 4.21 2.18 4.21.82 0 1.56-.29 2.31-.57l.68 2.28-7.41 4.06Zm-6.19-17.9c-1.22.64-2.38 1.43-3.74 2.21-2.11 1.14-3.2 2.42-3.2 4.85 0 3.99 2.52 5.49 4.08 5.49.95 0 1.7-.29 2.86-1.14V183.9Zm42.5 10.2c-3.13 4.63-7.55 7.7-11.69 7.7-9.32 0-14.75-7.42-14.75-15.19 0-5.21 2.52-10.27 6.87-13.62 4.42-3.42 8.91-4.42 11.56-4.42 2.45 0 4.69.78 5.85 1.78.95.71 1.22 1.57 1.22 2.57 0 2.07-1.77 3.92-2.92 3.92-.48 0-.88-.21-1.5-.78-2.86-2.57-4.96-3.71-6.87-3.71-2.72 0-5.71 2.71-5.71 10.34 0 9.48 6.46 12.62 9.38 12.62s4.83-.71 7.27-2.92l1.29 1.71Zm17.55 6.92c-1.22.5-2.31.78-2.79.78-5.24 0-8.29-2.57-8.29-8.98v-19.96h-4.28l-.34-.86 1.9-2.57h2.72v-5.21l7.68-5.56.95.43v10.34h6.66c.82.78.68 2.85-.41 3.42h-6.26v17.61c0 5.56 2.45 6.2 3.88 6.2 1.16 0 2.24-.29 3.4-.86l.68 2.5-5.51 2.71Z" class="logo_svg__cls-2"></path><path d="M215.72 107.86c0 59.57-48.29 107.86-107.86 107.86S0 167.43 0 107.86 48.29 0 107.86 0s107.86 48.29 107.86 107.86" style="fill:#8da6d6"></path><path d="M149.33 30.66c-3.05.66-6.85.74-8.47 3.91 1.86-.35 3.7-.8 5.51-1.35 1.92-.58 3.38-.42 2.96-2.56Zm-12.49 3.37c-4.69.07-9.41.94-14.07.13.04.8.08 1.6.11 2.41 4.74-.17 9.5-.89 13.97-2.54Zm46.76 22.19c-.5-1.43-.35-2.95-.09-4.4.23-1.26 1.19-3.11-.27-3.47-2-.49-3.96-1.49-4.66-3.57-.61-1.84-4.09-1.08-5.5-2.84-1.9-1.86-2.09-4.65-3.13-6.97-1.07-2.4-6.4-.97-8.28-.27-5.78 2.15-11.95 3.1-18.09 3.29 1.5 1.21 3.05 2.37 4.59 3.53-1.61-.09-3.22-.15-4.84-.2 0-.78.02-1.56.04-2.34.03-1.27.46-1.52-1.07-1.52-1.07 0-2.12.1-3.17.28-4.15.73-7.93 2.74-11.66 4.62-3.85 1.94-7.23 3.56-10.43 6.56-1.72 1.62-1.9 3.66-2.43 5.88-.44 1.83-.38 4.26-2.41 4.42.2.26.39.54.57.82l-12.07 8.73c-.07-.12-.15-.25-.22-.37-1.09-1.82-3.71.83-4.89 1.96-2.42 2.31-5.11-1.94-4.53-4.34-.85.2-1.73.4-2.6.59-.54 5.16-2.53 9.84-3.41 14.88-.95 5.35-1.19 10.83-2.5 16.12 1.59.25 3.13.25 4.48 1.15 1.77 1.17 3.7 2.07 5.64 2.93 2.96 1.33 6.68 3.81 8.92-.13 1.06-1.88-1.43-1.99-.53-3.66 1.32-2.42.65-3.2-.47-5.64-.66-1.43-2.06-4.8.37-4.94 1.88-.11 3.62 1.73 4.89.49 1.59-1.56 3.08-3.21 4.71-4.72-.96-1.75-1.42-3.28-3.7-2.96-4.96.69-3.08-2.98-3.35-6.27-.6-1.48-1.77-3.39-2.6-4.75l11.99-8.77c1.12 2.12 2.01 5.14 1.65 7.55.48 1.65-1.92 2.27-2.13 3.68-.51 3.47 13.12 2.04 14.96 2.64-1.38.19-2.57-.02-3.41 1.17-.77 1.1-1.37 2.31-1.77 3.59-.68 2.17-1.25 5.91.39 7.76 1.1 1.25 2.64 1.98 4.03 2.85 1.3-.41 2.63-.68 3.97-.95 2.66-.55 5.39-1.17 7.57-2.88 1.12 3.44-4.44 2.36-6.24 2.9-1.7.51.19 4.87.29 6.05.16 1.93-1.22 4.25-2.46 5.66-2.91 3.33-7.05 4.28-9 8.44-2.29 4.9-7.44 3.39-10.62.22-1.07-1.07-2.52-.77-3.99-.84-1.62-.07-2.92-.86-4.36-1.55-2.5-1.22-4.97-2.53-7.46-3.79-2.84-1.44-5.71-2.83-8.69-3.94-1.62-.61-2.02-1.11-3.08.28-.62.82-.82 1.15-1.16 2.18-1.79 5.3-4.71 10.73-7.88 15.33-3.1 4.48-7.1 8.2-10.59 12.34 2.96 1.96 6.04 3.71 8.86 5.87-2.94-1.22-5.66-2.87-8.51-4.29-.51-1.01-1.35-1.92-2.58-1.83-1.46.11-.7 1.43-.57 2.47.19 1.53.43 3.06.85 4.55.53 1.91.87 2.17 2.58 2.97 2.06.97 4.07 2.17 5.61 3.88.72.81 1.21 2.51 2.29 2.43 1.21-.09 2.04-.2 3.22.19 2.08.69 4.84 2.08 6.98 1.06 1.03-.5 1.89-1.29 2.83-1.95 1.19-.84 1.68.55 2.72-.23 1.18-.88 1.35-1.34 2.85-.94 1.19.31 2.36.63 3.54.97-1.14 2.12-.97 2.32-3.38 1.92-1.11-.18-2.21-.38-3.32-.57-2.07-.36-4.2 1.69-6.35 2.14-1.11.23-2.27.26-3.39 0-1.56-.37-1.44-.19-2.65.82-1.37 1.14-3.03 2.61-4.92 2.61-1.96 0-4.04-1.54-5.94-.42-.48 1.39.32 2.06 1.67 2.02 1.62-.03 3.42 3.01 2.91 4.5-.66 1.86 1.52 4.25 2.48 5.9-1.95.19-6.81 1.51-7.79-.17-1.13-1.95-2.71-3.6-4.56-4.87-1.07-.73-2.22-1.34-3.44-1.82-.82.33-1.71.41-2.58.43-2.04.05-4.21-.15-5.7 1.55-1.47-1.64-2.17-4.27-4.41-5.09-2.63.83-4.73 2.69-7.07 4.07 1.46.81 2.72 1.92 3.85 3.14.76.83 1.55 2.4 2.65 2.81 1.14.43 2.41-.25 3.48-.55 1.37-.38 1.93 1.37 2.65 2.39 1.32.65 2.72 1.2 4.18 1.43 2.24.35 2.31-.17 3.32-2.01.85-1.55 1.1-2.4 2.93-1.61 1.09.48 2 1.29 2.89 2.06.68.59 1.35 1.18 2.12 1.65.71-.26 1.44-.4 2.19-.41 1.46-.03 2.88.4 4.24.89 1.45.52 2.1.77 3.02 1.96.61.8 1.61.47 2.18-.37.92-1.34-.28-3.5-.61-4.86-.4-1.63.49-1.5 1.92-2 1.41-.49 2.84-.94 4.29-1.31-.25 1.26-.49 2.52-.75 3.78 1.67-.02 3.35.11 5.01.38.51-.6.94-1.25 1.4-1.89 1.08-1.49 2.4-2.97 4.42-2.83 3.09.39 1.95 5.41-1.02 4.6.01.3.03.6.05.9 2.42-.38 4.91 1.14 7.29.28 2.1-.77 1.78-3.02 2.03-4.9.89.73 2.29.61 3.07 1.51.77.9-.02 2.93.14 4.07.43 3 2.7 5.86 5.97 5.64-.14.95-.28 1.9-.43 2.84 2.1-.07 4.18-.2 6.28-.27 1.97-.07 3.49-1.45 5.16-2.46.68 1.34 1.32 2.71 1.89 4.11.62 1.52 1.83 1.92 3.29 2.6 2.64 1.22 5.43 2.05 8.27 2.59-.73 2.07-1.42 4.17-2.43 6.12-.66 1.28-1.72 2.09.01 2.96-1.35 1.49-3.89 3.49-.7 4.62-.94 1.15-1.93 2.23-2.98 3.27-1.12 1.13-2.78 1.71-1.81 3.22 1.43 2.2 1.94 3.21 2.07 5.8 2.6-.95 4.08-1.07 6.88-.8 2.46.24 4.92.43 7.39.46-1.03-1.01-2.08-2-3.13-3 .93-.08 1.86-.15 2.8-.24-.3-.8-.61-1.6-.9-2.4 2.84-.02 2.53-2.67 2.62-4.73-.96-.38-2.84-.6-2.6-1.72.23-.98.45-1.97.67-2.96-1.79.3-3.58.62-5.38.96-.04-1.52-1.55-2.8-1.26-4.35.18-1.02 1.02-.59 1.78-.53 1.32.09 1.33.27 2.37-.7 1.71-1.59 3.48-3.15 5.38-4.53 1.97-1.42 1.98-1.74 2.31-4.07-1.35.57-2.71 1.16-4.06 1.76.2-2.71.2-4.42 1.89-6.58 1.42-1.84 2.8-3.74 4.02-5.73.08-4.14.62-8.5-2.17-11.89-1.08-1.3-3.25-2.55-2.5-4.1.68-1.41-.18-2.42-1.38-3.09-2-1.12-2-.96-1.62-3.33.2-1.24-2.32-1.24-3.43-1.5.63-1.07 2.17-2.45 1.35-3.51-.54-.69-1.06-1.37-1.58-2.06 2.87-1.2 5.97-2.29 9.08-1.3-.75-1.37-1.51-2.75-2.25-4.13 3.71 2.18 7.94 3.3 11.66 5.46l-.33-2.78c2.4.65 4.64-.41 6.76-1.43 1.05-.51 2.14-1.02 3.29-1.3 1.04-.26 2.19.02 3.2-.32 1.77-.62 2.43-2.8 3.34-4.24.88-1.4-4.48-4.05-5.73-4.8 1.07-1.13 1.73-2.59 2.87-3.66 1.15-1.07 3.02-.46 3.94-1.45 1.07-1.17 1.57-2.4 2.85-3.52 1.57-1.38 3.2-2.74 5.14-3.59-.71-.87-1.43-1.73-2.15-2.59.59-1.28 1.31-2.49 1.83-3.8 1.19-3.01-1.66-5.41-3.16-7.93-.75.87-1.38 2.31-2.52 1.95-.95-.31-1.95-.48-2.94-.66-1.87-.34-4.04-.71-5.33-2.26-1.64-1.98-.97-3.34.78-4.82 1.47-1.25-3.04-4.65 1.16-5.69 2.57-.64 5.24.55 7.83.43 1.57-.07 3.33.64 3.47-1.19.11-1.5.14-3 .19-4.5.1-2.97.28-6 1.33-8.81.94-2.48 2.81-4.32 3.51-6.99.73-2.8.67-5.82-.37-8.53Zm-75.44-17.91c-2.17.07-3.08 2.22-3.87 3.9 5.64-2.66 12.17-3.42 17.23-7.27-4.59.54-8.8 2.66-13.36 3.37Zm-9.84 9.55c1.31-1.49 3.13-2.51 4.63-3.81-4.22.51-6.79 4.23-9.88 6.68 2.19.05 3.89-1.31 5.25-2.87Zm-4.09 12.26c.87-1.25 1.43-2.69 1.57-4.21-.8-1.3-1.62-2.6-2.42-3.9-2.6 3.83-6.98 8.23-5.3 13.3 2.25-1.43 4.59-2.97 6.15-5.2Z" class="logo_svg__cls-2"></path><path d="M106.55 106.37c1.34-.44 3.17 1.43 4.26 2.2 2.09 1.47 5.08 4.25 7.59 2.05.97-.85 1.45-2.14 1.64-3.38.33-2.05 1.11-2.41 2.93-3.57 3.05-1.96 6.81-2.79 8.11-6.51.53-1.53.64-3.19.37-4.78-.28-1.63-3.36-1.71-4.87-2.24-1.13-.4-2.24-.86-3.34-1.37-.71.36-1.41.73-2.1 1.13-1.39.79-2.74 1.64-4.12 2.44-1.85 3.04-3.84 4.37-6.72 6.47-1.57 1.15-3.13 2.33-4.69 3.48-.95.69-1.89 1.37-2.86 2.03.28.46.56.91.84 1.36 1.01 1.64 1.19 1.25 2.95.67ZM59.4 141.44c.59 1.45.63 3.28 1.97 4.31 2.36 1.09 4.74 2.11 7.14 3.12 1.56.66 1.98 1.34 3.41.26 1-.77 2-1.55 3.02-2.3-2.6-.31-5-1.47-7-3.12-2.27-1.87-4.78-3.29-7.28-4.88-.85-.55-2.41-2.07-3.29-1.52-.68.43-1.46.69-2.19 1.04-1.24.59-2.36 1.46-1.71 2.96 1.9-.46 4.97-2.17 5.93.13Zm-7.66 6.22c1.58.62 1.93.72 2.55 2.28.32.83.28 1.44 1.19 1.65 2.72.64 7.09 1 7.3-2.85-1.88-.89-3.71-2.08-4.68-3.99-2.26-.09-4.15-1.39-5.98-2.6.23.66.46 1.31.68 1.97-2.22-.68-7.2-.31-6.85 3.03.28 2.8 4.4-.05 5.78.5Zm-3.39 8.63c2.43-.34 4.37-.55 6.66-1.41-2.36-4.22-7.51-.79-11.08-1.55 1.36 1.34 2.47 3.24 4.42 2.96Zm12.36-3.5c-.97.43-1.93.85-2.91 1.28 2.36 3.28 6.25 4.43 10.1 4.82-.04-2.08-.66-5.29-2.86-5.76-1.54-.33-2.86-.97-4.34-.33Zm-2.98 12.53c-.97 2.49-2.03 3.51-4.86 3.83-2.39.27-4.8-.38-7-1.3-2.1-.88-4.2-2.69-6.57-2.63-2.03.04-3.91.95-5.93 1.19.11 2.09-.62 7.31 1.38 8.29 1.09.54 2.52 1.14 3.77.87 1.78-.38.63-2.41 1.85-2.79.96-.29 1.94-.59 2.91-.89 1.03.6 2.08 1.15 3.17 1.65 1.02.46 3.24.77 3.48 1.88.27 1.23.04 1.95 1.38 2.25 2.13.47 4.45.45 6.38-.65 1.23-.7 1.59-1.21 3.02-1.4 1.16-.15 1.36-.09 2.27-.91 1.9-1.7 3.78-3.42 5.43-5.36-.75-.66-1.52-1.32-2.28-1.98-2.21 3.78-6.23-.56-8.41-2.04ZM55.59 30.33s.15-.34.35-.33.25.1.26.14.14 0 .14-.07-.26-.17-.16-.27.4-.19.62-.13.57.14.62.12.21.06.32.3.41.63.84.82 1.21.61 1.41.67.67.13.74.26.16.29.51.24.79.09.79.09.37.09.56.07.43.06.43.06.4.01.5-.03.71-.05.73.18-.01.41-.11.48-.22.06-.21.18.08.23.04.3-.16.18-.16.18-.04.08.03.13-.21.07-.21.07-.17.07-.1.12.13.04.16-.02.16-.1.21.03.49 1.25.6 1.4 0 .52-.18.74-.43.48-.51.5-.18-.56-.5-.6-.46.13-.56.27.02.34.02.34l-.08.59.34.05s.13.09.18.42.22.45.22.45.23.6-.11 1.01-.62.4-.62.4-.39-.08-.58-.35-.34-.46-.34-.46-.17-.21-.34-.22-.14-.39-.14-.39-.03-.35-.08-.59-.18-.67-.41-.88.21-.8.21-.8.33-.27.25-.56-.13-.48-.27-.52-.14-.05-.18-.24-.25-.6-.53-.84-1.53-.88-2.18-.85-1.62.07-1.62.07-.69.04-.74-.19.03-.58-.11-.69-.44-.39-.26-.52.2-.23.19-.41-.08-.55.02-.72Zm10.52-7.42s.02-.18.11-.17.13.03.15.02.11-.04.13.04.04.09.06.08-.05.03-.04.08.08.1.09.13-.03.11.09.11.19 0 .23-.04.15.02.16.04.11.1.08.17-.11.21-.08.25.23.19.24.19.1.05.15.06.02.07.05.07.14-.02.16-.04.18-.01.22.04.13.13.14.18c0 0 .03.03.1.03s.09.07.09.07.04.03.07.03.28.07.29.1.08.17.13.19.09.02.1.08.02.48-.11.61l-.13.13s-.08.14-.2.15-.32.08-.41.12-.55 0-.63-.04-.18-.1-.24-.12-.09-.13-.1-.14-.08-.05-.11-.07-.14-.22-.12-.3-.05-.18-.18-.27-.31-.1-.39-.33-.1-.45-.22-.55.02-.34.1-.38.05-.19.02-.24-.01-.27 0-.31Zm-8.84-3.52s.14-.06.14-.11.05-.05.1-.02.16.14.22.13.13-.01.17 0 .18.05.31 0 .21.04.2.08-.02.15-.08.16-.1.12-.04.14.12-.03.16.03.1.11.05.19-.07.03-.07.03-.06.02-.05.08.01.11-.02.14-.14.13-.13.16.03.19-.11.2-.13-.01-.21.03-.13.13-.21.12-.17.04-.21.03-.14-.05-.22-.05-.17-.06-.29-.07-.24-.11-.23-.23 0-.28.1-.4.06-.2.06-.23.06-.15.1-.18.01-.09-.01-.11-.04-.08.06-.08.14.03.18-.05Z" class="logo_svg__cls-2"></path></g></svg>