<?xml version="1.0" encoding="UTF-8" standalone="no"?>
<svg
   version="1.1"
   id="svg2"
   xml:space="preserve"
   width="76.31765"
   height="88.999992"
   viewBox="0 0 76.317649 88.999994"
   sodipodi:docname="Logo_LEGA_Rosso copia.svg"
   inkscape:version="1.1 (c68e22c387, 2021-05-23)"
   xmlns:inkscape="http://www.inkscape.org/namespaces/inkscape"
   xmlns:sodipodi="http://sodipodi.sourceforge.net/DTD/sodipodi-0.dtd"
   xmlns="http://www.w3.org/2000/svg"
   xmlns:svg="http://www.w3.org/2000/svg"
   xmlns:rdf="http://www.w3.org/1999/02/22-rdf-syntax-ns#"
   xmlns:cc="http://creativecommons.org/ns#"
   xmlns:dc="http://purl.org/dc/elements/1.1/"><metadata
     id="metadata8"><rdf:RDF><cc:Work
         rdf:about=""><dc:format>image/svg+xml</dc:format><dc:type
           rdf:resource="http://purl.org/dc/dcmitype/StillImage" /></cc:Work></rdf:RDF></metadata><defs
     id="defs6" /><sodipodi:namedview
     pagecolor="#ffffff"
     bordercolor="#666666"
     borderopacity="1"
     objecttolerance="10"
     gridtolerance="10"
     guidetolerance="10"
     inkscape:pageopacity="0"
     inkscape:pageshadow="2"
     inkscape:window-width="1920"
     inkscape:window-height="1018"
     id="namedview4"
     inkscape:pagecheckerboard="0"
     showgrid="false"
     fit-margin-top="0"
     fit-margin-left="0"
     fit-margin-right="0"
     fit-margin-bottom="0"
     inkscape:zoom="1.3483146"
     inkscape:cx="145.36666"
     inkscape:cy="123.85833"
     inkscape:window-x="-6"
     inkscape:window-y="-6"
     inkscape:window-maximized="1"
     inkscape:current-layer="g10" /><g
     id="g10"
     inkscape:groupmode="layer"
     inkscape:label="ink_ext_XXXXXX"
     transform="matrix(1.3333333,0,0,-1.3333333,6.9279478e-5,308.53205)"><g
       id="g12"
       transform="matrix(0.02884627,0,0,0.02884627,-3.69712e-5,164.64905)"><path
         d="m 995.055,2311.4 871.435,-2.57 c 65.22,-0.18 117.95,-53.22 117.76,-118.43 l -5.18,-1742.912 c -0.16,-65.226 -53.2,-117.929 -118.41,-117.738 L 117.73,334.91 C 52.5234,335.109 -0.191406,388.129 0,453.352 L 5.15625,2196.26 c 0.19531,65.21 53.22265,117.92 118.44175,117.73"
         style="fill:#ef2f23;fill-opacity:1;fill-rule:evenodd;stroke:none"
         id="path14" /><path
         d="M 1786.14,1319.53 C 1784.86,881 1428.29,526.551 989.762,527.852 551.25,529.16 196.816,885.699 198.109,1324.21 c 1.289,438.54 357.832,792.96 796.356,791.68 438.525,-1.3 792.955,-357.85 791.675,-796.36"
         style="fill:#ffffff;fill-opacity:1;fill-rule:evenodd;stroke:none"
         id="path16" /><path
         d="m 1120.18,0 211.21,347.191 357.71,2.329 -280.75,-165.43"
         style="fill:#ef2f23;fill-opacity:1;fill-rule:evenodd;stroke:none"
         id="path18" /><path
         d="m 695.25,1837.68 12.246,-4.63 c 1.981,-0.75 3.527,-1.04 4.731,-1.04 1.996,0 3.054,0.81 3.617,1.68 0.687,1.06 1.328,3.38 -2.129,6.83 l -40.727,40.71 18.325,-39.87 c 0.636,-1.38 2.511,-3.14 3.937,-3.68 z m 20.375,-532.85 h -0.004 z m 29.887,-62.37 1.543,-2.03 27.515,29.77 -2.988,16.49 9.188,-9.79 12.335,13.35 -0.976,1.41 c -2.281,3.29 -4.57,6.58 -6.871,9.85 l -3.621,5.14 c -0.332,0.46 -0.746,0.96 -1.192,1.5 -0.851,1.02 -1.914,2.3 -2.078,3.16 -0.176,0.91 0.27,2.63 0.633,4.01 0.195,0.77 0.379,1.5 0.492,2.13 0.375,2.06 0.723,4.11 1.043,6.18 0.641,4.1 1.125,7.87 1.481,11.52 0.64,6.73 0.797,12.27 0.484,17.46 -0.543,8.73 -2.297,15.3 -5.367,20.09 -2.539,3.94 -5.957,7.16 -9.262,10.28 -2.019,1.91 -3.933,3.72 -5.652,5.67 -5.735,6.49 -9.531,13.01 -11.621,19.92 l -0.77,2.55 -2.316,-1.3 c -5.25,-2.92 -9.352,-7.91 -10.989,-13.36 -1.136,-3.81 -1.656,-7.76 2.215,-10.82 2.129,-1.67 4.254,-3.37 6.375,-5.06 1.063,-0.86 2.196,-1.7 3.348,-2.57 6.949,-5.21 13.512,-10.13 11.789,-19.24 -0.852,-4.48 -3.641,-8.62 -7.461,-11.08 -0.758,-0.48 -1.394,-0.78 -1.945,-1.05 -1.996,-0.95 -3.383,-1.82 -4.418,-5.05 -0.86,-2.68 -1.547,-5.59 -2.039,-8.66 l -0.102,1.3 -3.328,-3.5 c -1.769,-1.85 -3.887,-3.32 -6.07,-4.22 -0.215,-0.07 -0.594,-0.14 -1.016,-0.22 -1.879,-0.37 -3.07,-0.63 -3.805,-1.47 -0.711,-0.8 -0.808,-1.91 -0.929,-3.78 -0.039,-0.55 -0.055,-1.08 -0.129,-1.37 -1.028,-3.88 -3.559,-7.46 -6.934,-9.83 -1.004,-0.7 -2.031,-1.26 -3.144,-1.72 -0.235,-0.1 -0.785,-0.2 -1.227,-0.29 -1.058,-0.21 -2.156,-0.42 -3.308,-1.24 -0.957,-0.68 -1.25,-1.08 -1.563,-2.16 l -0.469,-1.47 c -0.312,-0.95 -0.605,-1.88 -1.093,-2.79 -2.383,-4.53 -6.961,-7.69 -11.653,-8.07 l -4.562,-0.37 3.211,-3.27 c 8.843,-8.99 12.754,-11.04 23.222,-13.2 l -0.008,-0.04 2.606,-0.48 c 0.238,-0.05 0.488,-0.1 0.762,-0.14 l 0.14,-0.03 c 0,0 0,0 0.008,0 4.238,-0.89 10.418,-0.92 15.652,-0.71 -2.433,-1.13 -5.218,-2.28 -8.105,-3.18 l -2.121,-0.95 0.887,-2.17 c 0.429,-1.05 0.816,-1.97 1.14,-2.61 2.024,-3.91 4.012,-7.85 5.973,-11.81 1.758,-3.55 4.469,-7.23 7.09,-10.68 z m -170.578,499.35 -48.567,30.94 26.508,-34.96 c 0.918,-1.22 3.137,-2.54 4.648,-2.75 l 12.957,-1.86 c 1,-0.15 1.875,-0.22 2.657,-0.22 3.543,0 4.883,1.36 5.347,2.63 0.446,1.2 0.575,3.59 -3.55,6.22 z m 132.683,-441.86 c 2.903,3.8 2.77,8.4 -0.344,11.71 -2.531,2.7 -5.703,4.89 -8.773,7.01 -1.172,0.81 -2.332,1.61 -3.434,2.42 -2.101,1.56 -4.812,3.41 -7.433,5.2 -1.871,1.26 -3.692,2.5 -5.215,3.59 -3.691,2.64 -8.27,1.61 -11.383,-2.54 -3.039,-4.04 -3.769,-10.12 0.242,-13.29 2.215,-1.75 3.071,-2.43 3.688,-2.57 2.765,-1.93 5.496,-3.91 8.203,-5.91 1.289,-0.96 2.562,-2.04 3.852,-3.13 2.484,-2.11 5.046,-4.28 7.914,-5.8 1.394,-0.74 2.836,-1.06 4.238,-1.06 3.363,0 6.531,1.87 8.445,4.37 z m 495.153,-110.66 -132.14,142.95 -1.38,-0.58 c -18.86,-7.91 -56.99,-21.18 -100.496,-21.18 -43.5,0 -81.625,13.27 -100.484,21.18 l -1.379,0.58 -132.379,-143.23 -0.367,-0.53 c -0.215,-0.46 -0.723,-2.12 -0.668,-3.48 l 45.171,-256.852 c 0.36,-1.918 2.383,-5.66 3.809,-7.039 l 186.273,-175.32 186.36,175.352 c 1.4,1.359 3.42,5.089 3.78,7.039 l 45.21,257.17 0.06,0.32 -0.04,0.33 c -0.07,0.49 -0.54,2.16 -1.33,3.29 z m 63.1,138.05 c -3.12,4.15 -7.7,5.16 -11.38,2.54 -1.52,-1.09 -3.35,-2.33 -5.21,-3.59 -2.63,-1.79 -5.33,-3.64 -7.44,-5.2 -1.09,-0.8 -2.25,-1.6 -3.42,-2.41 -3.07,-2.12 -6.25,-4.31 -8.79,-7.02 -3.11,-3.31 -3.24,-7.91 -0.34,-11.71 1.92,-2.5 5.08,-4.37 8.45,-4.37 1.4,0 2.84,0.32 4.23,1.06 2.87,1.52 5.44,3.69 7.92,5.8 1.28,1.09 2.56,2.17 3.85,3.13 2.72,2.02 5.46,4 8.2,5.92 0.62,0.13 1.48,0.81 3.69,2.55 4.01,3.18 3.28,9.26 0.24,13.3 z m -44.88,-22.3 z m 4.64,-4.88 c -0.48,0.92 -0.77,1.85 -1.08,2.8 l -0.47,1.47 c -0.32,1.08 -0.61,1.48 -1.85,2.35 -0.88,0.63 -1.97,0.84 -3.03,1.05 -0.46,0.09 -0.99,0.19 -1.24,0.3 -1.1,0.45 -2.13,1.01 -3.12,1.71 -3.38,2.37 -5.91,5.95 -6.94,9.82 -0.08,0.3 -0.09,0.83 -0.13,1.38 -0.12,1.87 -0.22,2.96 -0.94,3.78 -0.73,0.84 -1.92,1.1 -3.79,1.47 -0.42,0.08 -0.8,0.15 -0.96,0.2 -2.24,0.92 -4.36,2.39 -6.13,4.24 l -3.33,3.5 -0.1,-1.32 c -0.49,3.08 -1.18,6 -2.04,8.68 -1.04,3.23 -2.42,4.11 -4.42,5.05 -0.55,0.27 -1.18,0.57 -1.94,1.05 -3.82,2.46 -6.62,6.6 -7.46,11.08 -1.72,9.11 4.84,14.03 11.78,19.24 1.15,0.87 2.28,1.71 3.35,2.57 2.13,1.69 4.25,3.39 6.37,5.06 3.88,3.06 3.36,7.01 2.22,10.82 -1.63,5.44 -5.74,10.43 -10.99,13.36 l -2.32,1.3 -0.76,-2.55 c -2.09,-6.91 -5.89,-13.42 -11.62,-19.93 -1.72,-1.94 -3.63,-3.75 -5.65,-5.66 -3.31,-3.12 -6.73,-6.34 -9.26,-10.28 -3.08,-4.79 -4.83,-11.36 -5.37,-20.09 -0.31,-5.19 -0.16,-10.73 0.48,-17.46 0.36,-3.65 0.84,-7.42 1.48,-11.52 0.32,-2.07 0.67,-4.12 1.04,-6.18 0.12,-0.63 0.3,-1.36 0.5,-2.12 0.36,-1.38 0.81,-3.11 0.63,-4.02 -0.17,-0.86 -1.23,-2.14 -2.08,-3.16 -0.44,-0.54 -0.85,-1.04 -1.19,-1.5 l -3.62,-5.14 c -2.22,-3.16 -4.41,-6.31 -6.61,-9.48 l -0.98,-1.41 12.68,-13.72 9.19,9.79 -2.99,-16.49 27.19,-29.42 1.54,2.04 c 2.51,3.32 5.09,6.85 6.82,10.32 1.96,3.96 3.95,7.9 5.97,11.81 0.3,0.59 0.65,1.42 1.04,2.37 l 1.1,2.67 -2.23,0.69 c -2.9,0.9 -5.67,2.05 -8.11,3.17 5.24,-0.2 11.44,-0.17 15.65,0.73 v -0.01 c 0.59,0.11 1.11,0.21 1.59,0.3 l 1.93,0.35 -0.01,0.04 c 10.48,2.17 14.39,4.22 23.22,13.2 l 3.21,3.27 -4.56,0.37 c -4.69,0.38 -9.26,3.54 -11.66,8.06 z m -541.638,436.28 12.719,-3.1 c 1.496,-0.37 2.738,-0.53 3.758,-0.53 2.715,0 3.922,1.09 4.441,2.17 0.555,1.14 0.91,3.51 -2.941,6.52 l -45.387,35.45 23.051,-37.34 c 0.801,-1.3 2.883,-2.81 4.359,-3.17 z m 500.158,-366.96 c -4.38,-3.75 -6.66,-10.24 -1.91,-16.3 2.32,-2.95 5.54,-4.51 8.82,-4.51 2.02,0 4.05,0.58 5.93,1.78 3.43,2.19 6.61,4.89 9.68,7.5 1.75,1.5 3.5,2.98 5.28,4.36 2.9,2.24 6.28,4.82 9.55,7.31 l 5.63,4.3 c 4.38,3.36 4.68,9.38 0.71,14.65 -3.39,4.5 -9.31,7.23 -14.31,4.05 l -0.98,-0.69 c -0.18,-0.13 -0.37,-0.27 -0.54,-0.4 l -1.68,-1.24 h 0.01 c -10.36,-7.77 -18.74,-14.43 -26.19,-20.81 z m 40.93,0.09 c -2.76,-2.01 -5.51,-4.05 -8.24,-6.11 -5.29,-4.01 -10.52,-8.09 -15.7,-12.23 -3.76,-3.01 -9.44,-7.56 -5.67,-15.12 2.25,-4.5 6.82,-7.27 11.3,-7.27 1.34,0 2.65,0.24 3.9,0.76 3.77,1.55 7.06,4.44 10.25,7.25 1.38,1.22 2.74,2.41 4.08,3.44 4.48,3.4 9.32,7.02 14.36,10.5 l 1.17,0.8 c 4.1,2.75 9.71,6.52 6.16,14.54 -2.4,5.43 -8.06,10 -14.21,8.19 -2.29,-0.68 -4.19,-2.21 -5.86,-3.55 -0.52,-0.42 -1.03,-0.83 -1.54,-1.2 z m -378.06,469.92 11.378,-6.47 c 2.383,-1.36 4.165,-1.84 5.489,-1.84 1.394,0 2.285,0.54 2.855,1.18 0.848,0.94 1.836,3.12 -1.039,7.08 l -33.93,46.52 11.922,-42.22 c 0.422,-1.48 2.004,-3.49 3.325,-4.25 z M 715.984,1334.82 c -5.004,3.87 -9.589,7.3 -14.019,10.5 h -0.008 c -0.613,0.45 -1.281,0.99 -1.996,1.56 -3.074,2.47 -6.809,5.49 -11.152,5.31 -5.332,-0.32 -10.141,-4.83 -11.438,-10.72 -1.387,-6.31 3.492,-9.34 7.055,-11.55 0.676,-0.42 1.34,-0.83 1.941,-1.25 4.653,-3.28 9.469,-6.81 14.317,-10.52 0.769,-0.59 1.546,-1.26 2.351,-1.96 3,-2.61 6.645,-5.77 11.278,-5.77 0.609,0 1.246,0.05 1.882,0.17 5.618,1.03 9.828,5.68 10.028,11.06 0.218,5.87 -4.391,9.06 -8.086,11.63 -0.754,0.52 -1.489,1.02 -2.153,1.54 z m 518.966,10.5 c -4.74,-3.41 -9.41,-6.93 -14.03,-10.5 -0.67,-0.52 -1.4,-1.02 -2.15,-1.54 -3.7,-2.56 -8.3,-5.75 -8.09,-11.63 0.2,-5.38 4.42,-10.03 10.03,-11.06 0.64,-0.12 1.27,-0.17 1.88,-0.17 4.64,0 8.28,3.16 11.28,5.77 0.81,0.7 1.58,1.37 2.36,1.96 4.84,3.71 9.66,7.24 14.31,10.52 0.6,0.42 1.27,0.83 1.95,1.25 3.56,2.21 8.43,5.24 7.04,11.55 -1.29,5.89 -6.1,10.4 -11.44,10.72 -4.25,0.26 -8.07,-2.83 -11.14,-5.31 -0.71,-0.57 -1.39,-1.11 -2,-1.56 z m -504.813,-16.48 c 4.476,0 9.047,2.77 11.301,7.27 3.765,7.55 -1.911,12.1 -5.672,15.12 -5.18,4.14 -10.411,8.23 -15.703,12.23 -2.727,2.06 -5.473,4.1 -8.239,6.11 -0.5,0.37 -1.004,0.78 -1.519,1.19 -1.684,1.35 -3.59,2.88 -5.879,3.56 -6.129,1.8 -11.805,-2.75 -14.215,-8.19 -3.547,-8.02 2.074,-11.79 6.172,-14.55 l 1.172,-0.79 c 4.961,-3.43 9.828,-7.08 14.347,-10.5 1.344,-1.03 2.703,-2.22 4.09,-3.44 3.184,-2.81 6.473,-5.7 10.242,-7.25 1.25,-0.52 2.571,-0.76 3.903,-0.76 z m -21.078,59.73 c -3.961,-5.27 -3.664,-11.29 0.722,-14.65 l 5.496,-4.2 c 3.309,-2.52 6.739,-5.13 9.68,-7.41 1.785,-1.38 3.539,-2.88 5.297,-4.37 3.066,-2.6 6.23,-5.3 9.664,-7.49 1.875,-1.2 3.91,-1.78 5.922,-1.78 3.285,0 6.504,1.56 8.828,4.51 4.75,6.05 2.465,12.55 -1.91,16.3 -7.481,6.41 -15.918,13.11 -26.199,20.79 l 0.011,0.02 -1.574,1.17 c -0.273,0.2 -0.57,0.43 -0.894,0.67 l -0.516,0.51 h -0.227 c -5.007,3.15 -10.91,0.42 -14.3,-4.07"
         style="fill:#ffffff;fill-opacity:1;fill-rule:nonzero;stroke:none"
         id="path20" /><path
         d="m 872.758,1596.38 -16.094,-28.17 282.796,-180.15 z m 270.922,-278.9 c -0.11,0.45 -0.21,0.85 -0.26,1.15 -0.54,3.1 -1.03,6.19 -1.45,9.3 -0.66,4.81 -1.1,9.18 -1.35,13.36 -0.5,8.34 -0.21,15.45 0.86,21.72 0.36,2.05 0.88,4.05 1.44,6.03 l -293.303,186.84 -47.113,-82.46 c 69.094,-46.06 100.547,-87.63 118.359,-129.41 14.332,-3.28 30.735,-5.71 47.899,-5.71 52.638,0 97.748,22.61 98.198,22.84 l 10.1,5.13 55.12,-59.64 c 6.44,5.14 11.78,9.19 11.83,9.43 -0.01,0.12 -0.22,0.97 -0.33,1.42 z m -244.703,324.78 -19.11,-33.43 240.313,-187.7 z"
         style="fill:#1a67bb;fill-opacity:1;fill-rule:nonzero;stroke:none"
         id="path22" /><path
         d="m 1010.14,1836.83 c 93.75,-59.52 110.16,-104.31 127.31,-168.4 20.47,-76.54 49.64,-153.98 157.94,-188.98 l -53.27,-93.24 c -0.19,0.11 -0.35,0.21 -0.51,0.29 -0.12,0.15 -0.25,0.38 -0.51,0.79 -0.54,0.87 -0.96,1.81 -1.38,2.75 -0.55,1.23 -1.11,2.49 -1.92,3.71 -3.51,5.29 -8.42,9.43 -13.82,11.69 -2.45,1.02 -4.91,1.63 -7.3,1.78 -1.47,0.09 -2.81,-0.18 -3.99,-0.43 -0.92,-0.19 -1.77,-0.38 -2.54,-0.35 l -0.24,0.01 c -0.12,0.23 -0.27,0.51 -0.47,0.84 -0.48,0.81 -0.98,1.6 -1.52,2.38 -1.59,2.32 -3.42,4.49 -5.43,6.46 -4.95,4.83 -12.61,9.69 -19.1,8.94 -2.67,-0.3 -4.95,-1.6 -6.74,-3.68 l -226.439,310.55 59.929,104.89"
         style="fill:#ee2c30;fill-opacity:1;fill-rule:nonzero;stroke:none"
         id="path24" /><path
         d="m 942.5,1718.44 227.37,-311.83 c -1.64,-2.77 -3.76,-5.56 -6.52,-8.6 l -257.084,257.01 36.234,63.42"
         style="fill:#ee2c30;fill-opacity:1;fill-rule:nonzero;stroke:none"
         id="path26" /><path
         d="m 1142.4,1202.77 h -27.09 l -32.49,41.28 7.74,21.93 -39.35,16.77 -23.22,-18.47 H 968.754 V 793.332 l 48.256,40.75 1.08,61.066 36.34,39.102 v 22.781 l 58.88,39.34 -6.39,74.179 35.48,132.22"
         style="fill:#1a67bb;fill-opacity:1;fill-rule:nonzero;stroke:none"
         id="path28" /><path
         d="m 931.887,1264.28 -52.02,18.3 -70.941,-73.12 20.406,-53.77 -38.055,-70.37 43.86,-89.832 73.004,-33.886 -13.153,-58.231 36.239,-19.281 4.511,-52.891 33.016,-37.867 v 470.948 h -36.867"
         style="fill:#ee2c30;fill-opacity:1;fill-rule:nonzero;stroke:none"
         id="path30" /><path
         d="m 1264.3,1315.72 c -5.04,-3.98 -1.6,-1.09 -0.07,-0.04 -3.98,-2.72 -7.9,-5.52 -11.76,-8.39 -3.75,-2.78 -7.37,-6.57 -11.5,-8.76 -6.79,-3.6 -15.45,5.62 -9.78,11.67 3.33,3.55 8.02,6.28 11.93,9.18 3.58,2.66 8.96,6.15 12.61,8.76 6.68,4.76 14.18,-7.98 8.57,-12.42 z m -52.78,-39.04 c 2.86,0.53 6.27,1.15 0,-0.01 v 0.01 c -8.28,-1.76 -24.98,0 -24.98,0 0,0 8.01,-5.19 17.19,-8.04 -0.45,-1.09 -0.84,-2.07 -1.18,-2.71 -2.02,-3.93 -4.02,-7.87 -5.98,-11.84 -1.61,-3.24 -4.05,-6.59 -6.61,-9.98 l -24.72,26.75 4.09,22.58 -12.58,-13.4 -9.95,10.78 c 2.19,3.16 4.39,6.31 6.6,9.46 1.2,1.71 2.41,3.42 3.62,5.13 1.08,1.52 3.25,3.56 3.62,5.5 0.38,1.96 -0.76,4.93 -1.12,6.92 -0.37,2.05 -0.72,4.08 -1.03,6.12 -0.59,3.8 -1.1,7.6 -1.46,11.41 -0.56,5.73 -0.83,11.48 -0.48,17.12 0.4,6.58 1.59,13.72 5.03,19.06 3.86,6.02 10.04,10.38 14.72,15.69 5.26,5.97 9.66,12.79 12.06,20.72 4.59,-2.56 8.45,-7.03 9.97,-12.11 1.12,-3.73 1.2,-6.39 -1.49,-8.51 -2.13,-1.69 -4.26,-3.38 -6.39,-5.08 -7.48,-5.98 -18.18,-11.76 -15.89,-23.88 0.94,-5 4.04,-9.68 8.41,-12.48 2.97,-1.91 4.31,-1.32 5.48,-4.96 0.91,-2.83 1.55,-5.73 2,-8.63 1.22,-7.84 1.17,-15.93 -0.13,-23.45 2.17,6.47 3.56,13.4 4.08,20.41 1.95,-2.06 4.33,-3.71 6.86,-4.75 0.67,-0.27 3.52,-0.59 3.97,-1.11 0.44,-0.5 0.35,-3.36 0.6,-4.28 1.18,-4.42 4,-8.39 7.78,-11.03 1.12,-0.79 2.29,-1.43 3.53,-1.95 1.06,-0.43 2.99,-0.49 3.86,-1.11 1.11,-0.79 0.72,-0.37 1.3,-2.09 0.43,-1.3 0.79,-2.53 1.45,-3.77 2.71,-5.15 7.92,-8.76 13.36,-9.2 -9.48,-9.66 -12.95,-10.91 -25.59,-13.29 z m -54.75,-348.129 c -0.28,-1.481 -2.09,-4.832 -3.17,-5.871 L 968.73,748.73 783.922,922.672 c -1.086,1.047 -2.891,4.398 -3.168,5.879 l -45.172,256.819 c -0.012,0.62 0.387,1.95 0.504,2.19 l 131.355,142.13 c 17.969,-7.54 56.938,-21.35 101.321,-21.35 44.368,0 83.338,13.81 101.308,21.35 l 131.14,-141.86 c 0.34,-0.51 0.73,-1.85 0.76,-2.11 z M 733.18,1268.64 c 9.179,2.85 17.191,8.04 17.191,8.04 0,0 -16.703,-1.76 -24.984,0 v -0.01 c -6.266,1.16 -2.864,0.54 0,0.01 -12.645,2.38 -16.106,3.63 -25.598,13.29 5.445,0.44 10.66,4.05 13.375,9.2 0.649,1.24 1.008,2.47 1.445,3.77 0.579,1.72 0.188,1.3 1.305,2.09 0.863,0.62 2.797,0.68 3.848,1.11 1.246,0.52 2.41,1.16 3.539,1.95 3.773,2.64 6.601,6.61 7.777,11.03 0.25,0.92 0.156,3.78 0.598,4.28 0.457,0.52 3.304,0.84 3.965,1.11 2.543,1.04 4.918,2.69 6.871,4.75 0.511,-7.01 1.902,-13.94 4.074,-20.41 -1.297,7.52 -1.352,15.61 -0.133,23.45 0.449,2.9 1.098,5.8 2.008,8.63 1.168,3.64 2.5,3.05 5.48,4.96 4.372,2.8 7.465,7.48 8.414,12.48 2.29,12.12 -8.425,17.9 -15.906,23.88 -2.125,1.7 -4.246,3.39 -6.386,5.08 -2.684,2.12 -2.602,4.78 -1.485,8.51 1.52,5.08 5.371,9.55 9.973,12.11 2.39,-7.93 6.797,-14.75 12.058,-20.72 4.68,-5.31 10.856,-9.67 14.719,-15.69 3.438,-5.34 4.633,-12.48 5.031,-19.06 0.348,-5.64 0.075,-11.39 -0.476,-17.12 -0.367,-3.81 -0.867,-7.61 -1.465,-11.41 -0.316,-2.04 -0.664,-4.07 -1.031,-6.12 -0.356,-1.99 -1.496,-4.96 -1.121,-6.92 0.375,-1.94 2.543,-3.98 3.617,-5.5 1.211,-1.71 2.418,-3.42 3.625,-5.13 2.297,-3.27 4.582,-6.55 6.863,-9.84 l -9.609,-10.4 -12.578,13.4 4.089,-22.58 -25.054,-27.11 c -2.656,3.51 -5.215,6.98 -6.875,10.34 -1.969,3.97 -3.965,7.91 -5.992,11.84 -0.332,0.64 -0.723,1.62 -1.172,2.71 z m -37.246,29.89 c -4.121,2.19 -7.746,5.98 -11.493,8.76 -3.871,2.87 -7.793,5.67 -11.769,8.39 1.531,-1.05 4.973,-3.94 -0.059,0.04 -5.621,4.44 1.879,17.18 8.559,12.42 3.656,-2.61 9.027,-6.1 12.621,-8.76 3.898,-2.9 8.59,-5.63 11.926,-9.18 5.672,-6.05 -2.989,-15.27 -9.785,-11.67 z m -16.469,42.48 c 1.039,4.72 4.953,8.78 9.473,9.05 4.308,0.24 8.667,-4.24 11.769,-6.47 4.723,-3.41 9.371,-6.91 13.973,-10.46 3.738,-2.9 9.617,-5.63 9.402,-11.4 -0.164,-4.6 -3.801,-8.21 -8.266,-9.03 -5.714,-1.05 -9.937,4.17 -13.828,7.15 -4.726,3.62 -9.523,7.15 -14.39,10.56 -3.637,2.56 -9.422,4.75 -8.133,10.6 z m 12.703,24.25 c 2.105,4.76 6.781,8.44 11.648,7 2.532,-0.74 4.664,-2.89 6.75,-4.41 2.754,-2.01 5.489,-4.04 8.204,-6.1 5.277,-3.98 10.492,-8.06 15.66,-12.2 3.937,-3.15 8.043,-6.57 5.09,-12.48 -2.395,-4.81 -8.028,-7.33 -12.473,-5.5 -5.059,2.09 -9.531,7.14 -13.848,10.42 -4.746,3.61 -9.539,7.18 -14.429,10.56 -4.524,3.12 -9.692,5.72 -6.602,12.71 z m 30.527,25.24 c 0.004,0 0.02,-0.01 0.024,-0.02 -0.004,0.01 -0.016,0.01 -0.02,0.02 5.598,-4.16 0.489,-0.37 0.02,-0.02 9.746,-7.24 19.426,-14.72 28.648,-22.63 3.735,-3.2 5.492,-8.4 1.617,-13.34 -3.257,-4.15 -8.222,-4.61 -11.914,-2.25 -5.242,3.34 -9.886,7.94 -14.804,11.74 -4.645,3.6 -10.528,8.05 -15.188,11.62 -7.933,6.07 3.742,20.7 11.617,14.88 z m 72.379,69.91 c 59.731,-39.87 89.555,-75.38 107.153,-111.4 -19.106,5.88 -31.442,12.02 -31.668,12.13 l -10.098,5.13 -55.383,-59.92 c -6.598,5.27 -12.129,9.47 -12.187,9.71 0.019,0.12 0.222,0.97 0.339,1.42 0.11,0.45 0.204,0.85 0.254,1.15 0.539,3.1 1.028,6.19 1.454,9.3 0.652,4.81 1.093,9.18 1.347,13.36 0.5,8.34 0.219,15.45 -0.863,21.72 -0.852,4.88 -2.293,9.6 -4.289,14.01 -2.863,6.3 -7.594,10.94 -12.18,15.43 -1.437,1.41 -2.875,2.82 -4.25,4.28 -3.723,3.95 -6.351,7.41 -8.293,10.9 -0.254,0.46 -0.441,0.97 -0.656,1.46 z m 54.543,95.47 293.303,-186.84 c -0.56,-1.98 -1.08,-3.98 -1.44,-6.03 -1.07,-6.27 -1.36,-13.38 -0.86,-21.72 0.25,-4.18 0.69,-8.55 1.35,-13.36 0.42,-3.11 0.91,-6.2 1.45,-9.3 0.05,-0.3 0.15,-0.7 0.26,-1.15 0.11,-0.45 0.32,-1.3 0.33,-1.42 -0.05,-0.24 -5.39,-4.29 -11.83,-9.43 l -55.12,59.64 -10.1,-5.13 c -0.45,-0.23 -45.56,-22.84 -98.198,-22.84 -17.164,0 -33.567,2.43 -47.899,5.71 -17.812,41.78 -49.265,83.35 -118.359,129.41 z m 23.141,40.5 266.702,-208.32 -282.796,180.15 z m 26.219,45.88 221.203,-221.13 -240.313,187.7 z m 43.523,76.18 227.37,-311.83 c -1.64,-2.77 -3.76,-5.56 -6.52,-8.6 l -257.084,257.01 z m 67.64,118.39 c 93.75,-59.52 110.16,-104.31 127.31,-168.4 20.47,-76.54 49.64,-153.98 157.94,-188.98 l -53.27,-93.24 c -0.19,0.11 -0.35,0.21 -0.51,0.29 -0.12,0.15 -0.25,0.38 -0.51,0.79 -0.54,0.87 -0.96,1.81 -1.38,2.75 -0.55,1.23 -1.11,2.49 -1.92,3.71 -3.51,5.29 -8.42,9.43 -13.82,11.69 -2.45,1.02 -4.91,1.63 -7.3,1.78 -1.47,0.09 -2.81,-0.18 -3.99,-0.43 -0.92,-0.19 -1.77,-0.38 -2.54,-0.35 l -0.24,0.01 c -0.12,0.23 -0.27,0.51 -0.47,0.84 -0.48,0.81 -0.98,1.6 -1.52,2.38 -1.59,2.32 -3.42,4.49 -5.43,6.46 -4.95,4.83 -12.61,9.69 -19.1,8.94 -2.67,-0.3 -4.95,-1.6 -6.74,-3.68 l -226.439,310.55 z m 192.34,-487.28 c 5.17,4.14 10.38,8.22 15.65,12.2 2.72,2.06 5.46,4.09 8.21,6.1 2.08,1.52 4.22,3.67 6.75,4.41 4.87,1.44 9.55,-2.24 11.65,-7 3.09,-6.99 -2.08,-9.59 -6.6,-12.71 -4.9,-3.38 -9.68,-6.95 -14.43,-10.56 -4.32,-3.28 -8.79,-8.33 -13.85,-10.42 -4.44,-1.83 -10.07,0.69 -12.47,5.5 -2.96,5.91 1.15,9.33 5.09,12.48 z m 11.73,40.95 c -0.01,-0.01 -0.02,-0.01 -0.03,-0.02 0.01,0.01 0.02,0.02 0.03,0.02 7.87,5.82 19.55,-8.81 11.62,-14.88 -4.66,-3.57 -10.54,-8.02 -15.19,-11.62 -4.91,-3.8 -9.56,-8.4 -14.8,-11.74 -3.69,-2.36 -8.66,-1.9 -11.91,2.25 -3.89,4.94 -2.13,10.14 1.61,13.34 9.23,7.91 18.9,15.39 28.64,22.63 -0.46,-0.35 -5.57,-4.14 0.03,0.02 z m 43.23,-49.49 c 1.29,-5.85 -4.49,-8.04 -8.13,-10.6 -4.87,-3.41 -9.67,-6.94 -14.39,-10.56 -3.89,-2.98 -8.11,-8.2 -13.83,-7.15 -4.46,0.82 -8.1,4.43 -8.27,9.03 -0.21,5.77 5.67,8.5 9.41,11.4 4.6,3.55 9.25,7.05 13.97,10.46 3.1,2.23 7.46,6.71 11.77,6.47 4.52,-0.27 8.44,-4.33 9.47,-9.05 z m -686.659,394.28 -12.949,1.87 c -0.945,0.14 -2.676,1.16 -3.254,1.91 l -19.297,25.46 38.504,-24.53 c 4.395,-2.8 3.68,-5.67 -3.004,-4.71 z m 126.43,0.12 -12.715,3.11 c -0.922,0.22 -2.547,1.4 -3.047,2.21 l -16.777,27.18 35.976,-28.09 c 4.11,-3.21 3.125,-6.01 -3.437,-4.41 z m 11.047,99.64 -12.246,4.63 c -0.891,0.34 -2.36,1.71 -2.754,2.57 l -13.34,29.03 32.285,-32.28 c 3.688,-3.68 2.367,-6.33 -3.945,-3.95 z m 151.199,-0.17 -11.375,6.47 c -0.832,0.47 -2.066,2.05 -2.324,2.97 l -8.684,30.74 26.895,-36.88 c 3.074,-4.22 1.359,-6.63 -4.512,-3.3 z m 607.773,-684.84 -86.16,67.3 4.63,-2.95 c 1.99,-1.26 5.3,0.4 7.4,3.7 2.1,3.3 2.2,7 0.23,8.26 l -121.68,77.51 c 4.72,3.66 7.59,8.07 8.18,12.89 0.66,5.31 -1.34,10.72 -5.95,16.07 -0.5,0.58 -1.26,1.52 -1.71,2.15 -0.29,0.42 -0.48,0.66 -0.54,0.76 -0.03,0.17 -0.01,0.38 0,0.7 l 0.02,0.59 c 0.1,4.92 -3.04,14.93 -10.33,21.76 -0.48,0.45 -0.62,0.61 -0.56,0.76 -0.01,0.35 -0.03,0.79 -0.09,1.39 -0.1,0.96 -0.26,1.92 -0.47,2.87 -0.58,2.61 -1.58,5.25 -2.98,7.83 -0.94,1.74 -2.1,3.37 -3.35,4.95 l 59.17,103.57 c 1.14,1.99 1.31,4.4 0.44,6.53 -0.86,2.12 -2.65,3.74 -4.85,4.37 -108.35,31.41 -135.96,103.66 -156.71,181.25 -18.74,70.02 -38.69,119.08 -143.68,183.34 0.84,1 1.81,1.99 2.57,2.54 l 21.87,15.84 c 2.74,1.99 5.13,5.84 5.68,9.18 l 7.55,45.23 c 1.24,7.46 0.17,7.38 -0.11,7.54 -0.29,0.16 -0.76,1.14 -6.57,-3.71 l -35.19,-29.4 c -2.6,-2.16 -4.72,-6.18 -5.048,-9.55 l -2.59,-26.88 c -0.148,-1.51 -0.996,-4.17 -1.746,-5.48 l -60.851,-106.5 -51.075,70.03 c -0.89,1.22 -2.023,3.78 -2.335,5.26 l -5.528,26.43 c -0.691,3.31 -3.242,7.07 -6.058,8.94 l -38.207,25.36 c -6.305,4.18 -6.664,3.17 -6.93,2.97 -0.266,-0.19 -1.344,-0.22 0.715,-7.5 l 12.461,-44.13 c 0.91,-3.26 3.715,-6.83 6.652,-8.51 l 23.477,-13.34 c 1.32,-0.75 3.406,-2.61 4.293,-3.83 l 54.82,-75.18 -38.449,-67.3 -154.786,154.73 c -1.07,1.07 -2.582,3.42 -3.121,4.83 l -9.554,25.26 c -1.196,3.17 -4.297,6.49 -7.367,7.9 l -41.68,19.13 c -6.871,3.15 -7.07,2.09 -7.305,1.86 -0.23,-0.23 -1.289,-0.43 1.871,-7.3 l 19.145,-41.67 c 1.406,-3.08 4.73,-6.17 7.894,-7.37 l 25.258,-9.55 c 1.418,-0.53 3.766,-2.04 4.836,-3.11 l 157.516,-157.48 -20.715,-36.25 -137.188,107.16 c -1.191,0.93 -2.98,3.07 -3.683,4.42 l -12.567,23.9 c -1.57,3 -5.05,5.92 -8.273,6.94 l -43.699,13.91 c -7.207,2.3 -7.274,1.22 -7.481,0.97 -0.199,-0.27 -1.222,-0.6 2.746,-7.03 l 24.082,-39.02 c 1.774,-2.89 5.45,-5.56 8.735,-6.36 l 26.234,-6.4 c 1.473,-0.35 3.984,-1.58 5.176,-2.5 l 138.808,-108.43 -17.312,-30.31 -238.965,152.22 c -1.273,0.81 -3.262,2.78 -4.094,4.04 l -14.789,22.59 c -1.855,2.84 -5.601,5.4 -8.906,6.12 l -44.828,9.66 c -7.395,1.6 -7.359,0.52 -7.535,0.24 -0.176,-0.27 -1.168,-0.7 3.402,-6.73 l 27.707,-36.54 c 2.039,-2.69 5.957,-5 9.301,-5.49 l 26.726,-3.85 c 1.5,-0.22 4.125,-1.19 5.399,-2 l 239.535,-152.59 -83.598,-146.32 c -3.781,-1.74 -7.386,-4.41 -10.152,-7.1 -2.008,-1.97 -3.832,-4.14 -5.43,-6.46 -0.531,-0.78 -1.046,-1.57 -1.519,-2.38 -0.195,-0.33 -0.348,-0.61 -0.469,-0.84 l -0.242,-0.01 c -0.762,-0.03 -1.617,0.16 -2.531,0.35 -1.192,0.25 -2.528,0.52 -3.996,0.43 -2.391,-0.15 -4.852,-0.76 -7.305,-1.78 -5.402,-2.26 -10.305,-6.4 -13.817,-11.69 -0.808,-1.22 -1.371,-2.48 -1.917,-3.71 -0.418,-0.94 -0.836,-1.88 -1.375,-2.75 -0.262,-0.41 -0.399,-0.64 -0.52,-0.79 -0.316,-0.17 -0.641,-0.37 -1.133,-0.73 -0.383,-0.28 -0.84,-0.5 -1.285,-0.72 -0.508,-0.25 -1.012,-0.51 -1.473,-0.81 -4.836,-3.1 -9,-7.58 -11.718,-12.61 -1.399,-2.58 -2.403,-5.22 -2.973,-7.83 -0.211,-0.95 -0.367,-1.91 -0.473,-2.87 -0.062,-0.6 -0.078,-1.04 -0.09,-1.39 0.051,-0.15 -0.085,-0.31 -0.562,-0.76 -7.289,-6.83 -10.426,-16.84 -10.328,-21.76 l 0.019,-0.59 c 0.004,-0.32 0.032,-0.53 0.004,-0.7 -0.066,-0.1 -0.258,-0.34 -0.551,-0.76 -0.437,-0.63 -1.199,-1.57 -1.703,-2.15 -4.605,-5.35 -6.605,-10.76 -5.957,-16.07 0.641,-5.17 3.813,-9.91 9.192,-13.72 1.761,-1.25 2.914,-2.38 4.363,-3.81 l 1.059,-1.04 c 0.281,-0.27 0.613,-0.56 0.945,-0.86 L 590.52,1153.61 c -0.047,-0.07 -0.11,-0.12 -0.153,-0.2 -2.547,-4.47 0.34,-10.91 6.446,-14.39 6.101,-3.47 13.113,-2.67 15.664,1.8 l 78.445,137.3 c 1.016,-1.13 1.773,-2.03 2.379,-2.75 2.383,-2.86 3.265,-3.76 9.625,-7.39 2.703,-1.54 5.554,-2.63 8.308,-3.69 2.032,-0.77 3.957,-1.51 5.813,-2.4 1.723,-2.33 8.144,-17.52 14.965,-34.59 l -17.934,-19.41 c -6.359,-6.88 -9.668,-18.13 -8.047,-27.36 l 45.215,-257.178 c 1.371,-7.813 6.359,-17.051 12.137,-22.493 L 968.738,707.578 c 0,0 148.142,139.442 205.392,193.281 5.77,5.43 10.76,14.68 12.14,22.493 l 45.21,257.188 c 1.62,9.22 -1.69,20.47 -8.05,27.36 l -18.35,19.86 c 6.76,16.88 13.07,31.82 14.78,34.13 1.86,0.89 3.78,1.63 5.81,2.4 2.76,1.06 5.6,2.15 8.31,3.69 6.36,3.63 7.25,4.53 9.62,7.39 0.96,1.14 2.21,2.64 4.41,4.93 2,2.07 4.06,4.31 6.25,6.78 l 10.21,-10.21 163.6,-224.36 c 1.38,-1.9 5.07,-1.57 8.23,0.74 3.17,2.31 4.61,5.72 3.23,7.61 l -110.3,151.27 61.96,-61.94 c 1.66,-1.66 5.25,-0.76 8.02,2.01 2.77,2.77 3.67,6.36 2.01,8.02 l -106.99,106.95 164.27,-128.31 c 1.85,-1.44 5.3,-0.11 7.72,2.98 2.41,3.08 2.86,6.75 1.01,8.2"
         style="fill:#191413;fill-opacity:1;fill-rule:nonzero;stroke:none"
         id="path32" /></g></g></svg>
