<?xml version="1.0" encoding="UTF-8" standalone="no"?>
<!-- Created with Inkscape (http://www.inkscape.org/) -->
<svg
   xmlns:svg="http://www.w3.org/2000/svg"
   xmlns="http://www.w3.org/2000/svg"
   version="1.0"
   width="602.36218"
   height="602.36218"
   id="svg1901">
  <defs
     id="defs1903" />
  <g
     id="layer1">
    <g
       transform="translate(-48.8189,-231.1811)"
       id="g1912">
      <polygon
         points="500000,500000 16500000,500000 16500000,8184570 500000,8184570 500000,500000 "
         transform="matrix(3.543307e-5,0,0,3.543307e-5,48.8189,231.1864)"
         style="fill:#3f7b17;fill-rule:evenodd"
         id="_46701952" />
      <polygon
         points="500000,8815370 16500000,8815370 16500000,16499700 500000,16499700 500000,8815370 "
         transform="matrix(3.543307e-5,0,0,3.543307e-5,48.8189,231.1864)"
         style="fill:#64bf29;fill-rule:evenodd"
         id="_47398088" />
      <path
         d="M 535.22283,597.13561 C 538.12515,597.45628 540.16468,597.74931 542.51425,598.06785 C 546.96464,598.70919 553.29653,600.16017 553.29653,600.04005 C 555.68614,600.911 559.54834,602.25037 560.04582,602.7188 L 560.15779,602.5962 C 561.2672,603.08978 563.26669,603.67832 565.0681,604.69065 C 565.30622,605.12966 571.92936,608.62017 572.36803,609.22962 C 575.12897,611.37687 578.38775,613.53049 580.47795,616.23226 C 581.63803,617.01923 585.50838,621.49265 585.79929,622.7119 C 587.10074,623.98785 589.83866,628.4719 589.77948,629.22309 C 589.77948,629.22096 591.5196,633.20293 591.86968,634.13305 C 592.82921,636.84155 593.75932,639.57273 594.13917,640.38486 C 594.92153,643.46435 596.02917,646.63454 596.22936,652.15643 C 596.11137,654.97407 596.02917,661.1373 596.02917,661.1373 L 547.54468,661.16458 C 547.54468,661.16458 547.37389,657.82572 546.78535,653.78458 C 546.70527,651.05127 545.45448,648.46537 545.19299,648.08553 C 544.46519,646.75253 543.91492,645.76324 543.185,644.48517 C 542.69354,644.65171 541.64507,641.83584 540.68555,641.28557 C 539.75543,640.4419 536.06437,637.62391 535.22283,637.30324 C 532.28472,635.90931 528.88456,635.03375 525.66157,635.09293 C 520.80405,634.80379 514.99126,636.14316 510.69039,638.52462 C 506.71055,640.18253 503.24945,642.88431 500.08137,646.19588 C 499.46945,646.69123 493.71795,654.59671 493.45008,655.09454 C 492.46929,656.63411 491.85736,658.23497 491.18874,659.62714 C 490.45917,660.35281 487.75917,668.22852 487.75917,668.22852 C 486.94102,669.01513 485.16901,676.68852 484.81893,677.52793 C 484.15031,679.79742 483.01787,686.36777 483.01787,686.36777 C 482.40807,692.17844 482.34925,697.85021 483.01787,704.07013 C 483.36795,705.86942 483.88882,707.82037 484.15031,708.25265 C 484.55956,709.41698 485.66685,712.12088 486.59697,713.40143 C 488.07771,715.43245 490.31779,717.44045 492.11885,719.03281 C 493.10815,719.58769 496.7698,721.68214 497.43842,722.06163 C 499.9609,723.16289 502.72822,723.66249 502.72822,723.66249 C 507.75228,724.32297 511.91177,724.24253 516.56271,722.73237 C 519.67161,721.798 520.86322,721.13151 523.19189,720.34277 C 523.94271,719.81978 526.99244,717.81391 527.84248,717.03332 C 529.09114,715.83745 530.63318,715.17096 531.41342,713.7221 L 531.64338,713.71997 C 533.42141,711.18863 534.40433,710.37261 536.55582,706.42182 C 537.89519,704.30009 538.82531,702.73076 539.84401,700.61115 C 540.86271,698.86678 540.80354,697.52954 540.80354,697.52954 L 591.48984,697.8208 C 591.48984,697.8208 590.15897,703.77923 589.8911,704.71147 C 589.48822,706.35875 588.09003,709.82198 586.95936,712.41214 C 585.97007,714.70076 585.06972,716.62194 583.5298,718.74403 C 582.30877,721.07056 580.91023,723.283 579.54783,725.28462 C 578.29917,727.08781 577.15999,728.80277 575.93897,730.57442 C 575.38834,731.47088 572.30885,735.46348 571.57893,736.09631 C 568.55862,739.70304 564.57665,743.19391 560.797,746.03706 C 558.097,747.92493 555.01539,750.36733 551.96566,751.64753 C 551.14716,752.28462 549.81417,752.63682 549.02543,753.36639 C 547.48551,754.03501 546.64397,754.40635 544.02653,755.33647 C 541.03563,756.79419 535.22283,758.47726 532.46189,759.58667 C 531.41342,760.01682 530.80397,759.93674 529.14393,760.25529 C 526.30291,760.83533 524.73145,761.03765 521.47267,761.47631 C 519.0324,761.84552 517.93149,761.93836 515.34133,762.13891 C 511.24102,762.43619 506.50185,762.40678 501.68011,762.22749 C 500.80882,762.08399 496.74039,761.93836 491.73937,761.18541 C 491.30071,761.0334 486.97043,760.27832 482.34925,759.20682 C 481.85779,758.97296 477.37763,757.43517 475.7261,756.64643 C 473.77728,756.18226 471.94645,755.39777 470.14326,754.55623 C 468.74685,753.7969 467.46878,752.95537 465.9859,752.02525 C 464.70783,751.47249 458.51732,747.49442 456.59791,745.95485 C 452.06319,741.91371 448.63362,738.30485 445.03114,733.45371 C 444.42134,733.24891 440.96236,727.38332 440.29161,724.99336 C 439.56594,723.77021 436.51409,715.66241 436.13638,714.24297 C 435.58397,711.67797 434.8289,709.4719 434.59681,706.71096 C 433.43248,699.00816 433.86901,690.17895 434.71268,682.67848 C 434.91535,680.05679 435.75901,677.44785 435.75901,677.44785 C 435.75901,676.56627 436.48433,673.16824 436.805,672.32671 C 437.29858,670.52742 437.99697,666.25631 438.60642,664.59627 C 439.2474,662.85438 439.9139,659.48576 441.33972,655.8769 C 441.57181,654.91525 442.61815,653.31651 442.55897,652.70671 C 443.08409,651.45415 443.9848,649.01564 443.9848,649.01564 C 445.29264,646.78194 446.25216,644.92383 446.62988,643.93242 C 447.26874,643.06147 450.9598,637.01446 451.28047,636.52301 C 451.83323,635.76155 452.87708,634.08273 453.83697,632.53431 C 455.26279,631.04966 456.30878,629.08171 457.90575,627.62435 C 460.57988,624.54061 463.42976,621.6932 466.80015,618.9025 C 468.36949,617.62655 469.73614,616.67092 471.18925,615.59128 C 473.54732,613.58753 476.3359,611.44029 479.23823,610.27171 C 479.70842,609.57793 487.28897,606.03002 489.84937,604.80899 C 493.50889,603.26694 497.49122,602.16179 497.5798,601.9297 C 499.41063,601.32025 501.62094,600.59883 503.77031,600.33096 C 505.60114,599.4873 511.67968,598.99797 512.17114,598.44131 C 516.15346,597.85915 517.81137,597.83151 520.63114,597.5112 L 520.51315,597.50694 L 520.51315,597.27698 L 520.63114,597.27698 L 520.63114,597.50694 C 526.53287,596.89927 530.39472,596.89927 535.22283,597.13561 z M 380.2152,673.77556 C 379.83535,676.5156 379.83535,678.54875 379.11004,681.0482 C 378.70291,684.06639 375.01185,693.07915 375.30063,692.49911 C 372.83094,697.58659 369.66287,702.38068 365.36201,706.71096 C 365.18697,707.20879 361.08878,709.91056 359.49004,711.07277 C 358.06634,711.91218 356.58346,712.55352 355.01449,713.08076 C 353.70665,713.77029 352.10791,714.30214 351.06157,714.47293 C 348.85126,714.90946 348.03913,715.29108 345.4511,715.55045 C 341.81921,715.98096 340.1613,715.98308 335.8902,716.22119 C 330.27972,716.41962 318.15807,716.22119 318.15807,716.22119 L 334.72587,639.71411 C 334.72587,639.71411 355.56689,638.99269 361.14795,640.41427 C 363.1811,641.13994 368.44362,642.71352 369.05307,643.26379 C 371.60957,644.31226 373.15126,646.37517 375.30063,648.20352 C 375.73716,649.33631 377.8022,652.88387 378.23874,653.78458 L 378.0637,653.87316 C 378.99382,654.85608 380.3587,660.99592 380.2152,661.57596 C 380.27189,665.46757 380.9111,668.86773 380.2152,673.77769 M 429.27724,659.27706 C 429.27724,656.83679 428.8113,654.91525 428.60862,652.27442 C 427.99917,650.26431 428.23126,647.79462 427.44429,646.02474 C 427.27138,643.81017 426.22539,642.04277 425.84768,639.77328 C 425.41114,638.20183 424.85838,636.4323 423.95803,634.45372 C 422.91169,631.86994 420.06429,627.10313 419.30708,625.44309 C 418.75468,624.11009 417.44685,622.48194 416.3711,621.20175 C 415.90693,620.76096 414.19232,617.6308 411.74992,615.50269 C 409.10484,613.34907 403.66941,609.66013 403.66941,609.66013 C 400.76283,608.20879 398.32256,606.49206 395.0659,605.56194 C 394.51563,604.71828 385.65063,602.45907 383.67205,601.95946 C 379.63303,601.69797 376.11488,601.02935 372.22114,600.76962 C 347.86409,599.81009 294.93559,600.24876 294.93559,600.24876 L 260.43335,757.92237 L 322.11276,758.07438 C 325.19224,757.63359 328.73768,757.86745 331.93551,757.92663 C 331.93551,757.92237 348.64858,756.47564 356.2061,755.2858 C 359.40358,754.61293 362.68752,753.94643 365.885,753.27604 C 367.59996,752.46604 369.57642,752.28674 371.29102,751.44733 C 374.34323,750.28513 377.48153,749.5258 380.3587,747.95647 C 381.20236,748.13363 391.52047,742.28682 395.61866,738.68434 C 396.28728,738.19289 405.26815,730.83379 408.20413,727.32202 C 410.53067,724.70245 412.36149,722.203 414.56968,719.24186 C 416.54614,716.10108 418.8135,712.61234 420.15075,709.00986 C 420.87642,708.45958 422.35929,703.72005 422.6502,702.5008 C 424.13094,698.51883 425.87531,692.61923 425.81827,692.49911 C 426.37102,691.71887 426.9213,688.22801 427.27138,686.07864 C 427.94,683.60682 428.84071,678.83789 429.16138,674.36623 C 429.83,666.80694 429.27724,659.27706 429.27724,659.27706 z M 175.15622,600.32883 C 175.15622,600.32883 153.09595,702.18049 153.26886,704.27068 C 153.03678,706.42182 153.03678,708.75049 153.82162,710.69328 C 154.08312,711.85726 154.37402,712.67151 155.04264,713.7221 C 156.90288,717.03119 160.13012,719.24186 163.50052,720.46289 C 163.58697,720.89127 163.87823,720.75202 164.13973,721.01352 C 168.29709,722.84009 173.44126,723.02151 177.68508,722.61226 C 184.428,721.94151 190.79355,719.30281 195.03737,714.68163 C 198.72843,711.18863 200.50044,706.71096 202.5063,702.06001 C 203.46583,699.03757 204.9487,693.69072 205.26725,691.56899 C 205.4717,690.34974 225.55551,600.33096 225.55551,600.33096 L 275.22949,600.29943 C 275.22949,600.29943 251.19063,712.67151 247.70437,720.34277 C 247.03575,722.6693 246.2215,725.05253 245.20492,727.2632 C 240.32225,738.27296 233.60626,743.80336 231.77544,745.39572 C 230.29504,746.70568 228.14355,748.04505 226.48563,749.38442 C 225.70114,749.321 225.70114,750.25537 224.88689,750.19655 C 223.17229,751.35663 220.7887,752.22757 218.92847,753.36639 C 218.08481,753.4447 217.53418,754.17639 216.69052,754.29686 C 214.65737,754.99277 212.79678,756.12556 210.55705,756.44588 C 209.13335,757.22434 207.30252,757.34659 205.81965,757.9858 C 193.20654,761.09682 180.73693,761.58828 167.48284,761.09682 C 158.90874,760.48525 150.27583,759.98741 142.25237,757.9858 C 140.33508,757.78525 138.6793,756.93733 136.8467,756.55785 C 136.67378,756.12344 136.03457,756.26659 135.62745,756.00722 C 133.15564,755.28155 130.88792,753.82631 128.33178,753.13466 C 127.40166,752.5167 126.18028,752.14537 125.4252,751.35663 C 124.69741,751.2932 124.29064,751.03596 123.85587,750.57604 C 117.28587,746.0034 111.47272,740.31462 108.33442,733.07387 C 107.89788,732.40525 104.93213,726.13253 104.64335,722.1736 C 104.49772,720.34277 103.97473,718.92119 103.97473,717.15167 C 103.97473,716.10108 103.3628,714.7323 103.97473,713.54281 L 103.79969,709.10056 L 103.97473,709.10056 C 104.20646,708.05033 104.03142,706.71096 104.0906,705.75108 L 104.20646,705.75108 C 104.35209,704.44997 104.35209,703.1106 104.72981,701.88923 C 104.78863,699.96769 125.6867,600.44931 125.6867,600.44931 L 175.15622,600.32883 L 175.15622,600.32883 z M 545.07393,367.63313 C 543.76397,369.90262 541.99232,372.28372 539.90212,373.76447 C 533.04299,378.53341 523.71169,377.02538 514.03031,377.02538 L 485.86846,377.02112 L 492.83921,344.57931 L 532.49236,344.57931 C 535.54208,344.57931 538.91283,345.57286 541.87397,347.23077 C 543.88409,348.82951 545.5948,350.69187 546.23366,353.59419 C 546.64291,354.64231 546.84559,356.35301 547.16413,357.95388 C 547.34342,361.56061 546.14507,364.58305 545.07393,367.63526 M 597.97055,350.53986 C 597.74058,347.01959 596.98763,343.54148 596.13972,339.93262 C 595.93952,338.70734 595.85094,337.61069 595.09763,336.73939 C 594.77944,335.4592 594.42901,334.23994 593.61086,333.18971 C 592.71015,330.13538 589.56972,326.56053 587.62692,323.36908 C 583.87669,319.20782 579.68779,315.77825 575.2987,313.42833 C 570.27677,310.66561 564.74637,309.09628 559.02606,308.10699 C 554.43429,307.05888 549.28586,307.3792 544.5233,306.76762 L 451.25,306.56317 L 418.05523,463.78112 L 466.45114,463.81053 L 477.43787,416.45671 C 477.43787,416.45671 522.81098,416.25864 525.45181,416.19947 C 527.78259,416.25652 529.29275,416.08785 531.44212,416.02868 L 532.19507,416.02656 C 532.63374,415.96738 535.42196,415.64919 535.42196,415.81998 C 535.42409,415.81998 542.05326,415.36006 542.4246,415.36006 C 542.77468,415.47805 550.82543,414.48911 550.8846,414.30982 C 552.02342,414.22549 554.20468,413.81837 554.20468,413.81837 C 555.79704,413.40699 564.72511,410.18825 566.95669,409.01967 C 567.9481,408.69723 571.17499,406.72715 571.43684,406.49719 C 571.43684,406.49506 578.4983,400.93951 579.28704,400.38888 C 580.18775,399.57675 581.54838,397.91919 581.54838,397.91919 C 582.53732,397.07341 583.61732,396.08837 584.48862,394.80782 C 584.80681,394.31636 585.41873,393.58679 585.82799,393.09746 C 586.72621,391.84667 589.01909,387.39628 589.33976,387.01644 C 590.41728,384.92412 592.0185,381.72664 592.0185,381.72664 C 592.71015,380.33234 593.64027,377.19616 593.87873,376.70471 C 594.27948,375.2725 594.54098,374.69459 594.65897,373.59368 C 594.97964,372.86164 595.99834,368.82475 595.99834,368.82475 C 596.46039,367.2827 596.95822,364.03242 597.2998,362.49286 C 597.68141,360.89199 597.67929,358.45171 597.85858,357.66262 C 598.05913,354.93144 598.22992,352.14286 597.97055,350.53986 z M 320.27874,306.7655 L 333.82409,420.84829 L 390.18216,306.7655 L 444.12937,306.68542 L 362.57059,463.81053 L 293.19051,463.81053 L 269.32669,306.68542 L 320.27874,306.7655 L 320.27874,306.7655 z M 233.51874,305.57601 C 235.84315,306.06534 241.74488,308.16616 242.41351,308.77774 C 243.86662,309.32624 246.01599,310.48845 247.44181,311.41857 C 251.42378,313.53605 253.63233,316.32853 256.24764,319.38711 C 257.78933,321.64809 259.70662,323.91971 260.60733,326.68065 C 261.51016,328.45018 262.32229,331.42018 263.36827,333.68116 C 263.77752,335.51837 264.12547,336.88077 264.18252,339.0025 C 264.29839,339.7303 264.53047,340.48325 264.47343,341.09908 C 264.61906,342.05258 264.64847,343.59215 264.6761,344.84294 C 264.7941,347.66093 264.47343,353.59419 264.47343,353.59419 L 215.78874,353.70794 C 215.78874,353.70794 215.84579,352.89368 215.55666,351.4427 C 215.41138,348.71116 215.09071,347.81294 214.74276,346.3003 C 214.24918,345.30923 213.75347,344.35148 213.14402,343.65132 C 211.80678,341.93849 210.17827,340.54242 208.46366,339.7303 C 207.4765,339.23884 206.92374,339.17967 205.67296,338.7116 C 204.86118,338.47738 203.95835,338.33175 202.65052,338.13156 C 201.83662,338.15884 200.52878,338.01144 199.86016,337.96077 C 199.04591,337.89947 198.08638,337.78148 196.28496,337.66951 C 193.6126,337.4314 191.86823,337.40164 188.55489,337.29002 C 187.595,337.37648 186.34422,337.38073 184.89111,337.66951 C 183.06028,337.72018 180.47437,338.10215 178.75977,338.33175 C 177.3063,338.54081 176.5491,338.74101 174.77745,339.12085 C 173.78815,339.61231 173.00367,339.7303 171.63701,340.34187 C 169.19638,341.52959 167.13382,343.65132 166.37662,345.31136 C 166.02831,345.80282 165.68036,346.3616 165.50532,347.52168 C 165.00961,351.49975 167.91619,354.06227 168.81902,354.52431 C 170.18355,355.98168 171.02721,355.86368 172.74217,356.56171 C 173.7017,356.90967 174.45678,357.25372 175.15516,357.17116 C 175.50311,357.63108 176.25819,357.6038 176.78119,357.84191 C 177.62485,357.95388 178.32288,358.27455 179.13713,358.21325 C 183.41036,359.29325 187.595,360.42356 191.89587,361.26545 C 195.67552,362.60234 199.30741,362.92301 203.17386,364.08522 C 210.87666,366.35258 219.10244,367.45597 226.77583,369.78427 C 227.82181,370.04364 228.83839,370.24632 229.82768,370.5436 C 234.6239,372.05376 237.32603,373.06644 240.08697,374.75589 C 241.19213,375.16301 241.59925,375.56553 242.03579,375.74482 C 245.17445,378.06286 248.60402,381.11719 251.04429,383.82534 C 252.03359,385.15408 252.52681,386.03565 253.31166,387.13691 C 254.24177,388.61518 254.9104,389.77738 255.4061,391.26663 C 259.06776,398.49711 259.70662,407.6888 257.84638,415.91069 C 257.49843,417.47754 256.91626,420.52974 256.39327,422.38998 C 255.8111,424.48868 255.11484,425.94002 254.61914,427.74108 C 254.24177,428.46888 252.03359,432.91289 251.30792,434.37026 C 250.31862,436.07884 249.41792,437.741 248.11044,439.51266 C 245.60886,442.85152 242.58642,446.81258 239.38859,449.07356 C 236.45473,451.60242 233.81,453.55372 230.2054,455.44337 C 229.18847,456.25337 225.78654,457.9134 223.75303,458.75281 C 222.18406,459.62163 218.05611,461.22463 216.71886,461.69305 C 215.64347,462.0325 211.92264,463.08522 210.5854,463.374 C 208.72516,463.81053 205.73213,464.50679 204.88847,464.71337 C 204.01752,464.9412 203.05764,465.14565 201.4589,465.38411 C 199.48244,465.70266 197.27426,466.13494 195.06607,466.31423 C 193.98819,466.42407 191.1702,466.8351 189.91941,466.86486 C 189.0187,466.92155 179.16654,467.50372 172.18941,467.15577 L 162.8606,467.0927 C 162.8606,467.0927 156.14461,466.54419 153.06512,466.22565 C 152.28063,466.19199 145.94449,465.23423 144.83934,465.00427 C 143.73418,464.74065 139.02654,463.63549 136.87504,463.11463 C 135.91729,462.73089 134.40501,462.32589 132.89272,461.77526 C 131.41233,461.37026 129.40646,460.84514 128.24213,460.09431 C 127.42788,459.97384 123.5639,458.08419 121.47158,456.45569 C 121.47158,456.45356 119.92953,455.38419 118.65146,454.51325 C 117.19835,453.55372 115.6563,452.21435 114.61032,451.16376 C 113.65256,450.1199 111.12371,446.98337 111.00784,446.81258 C 110.19359,445.64187 106.90753,440.70215 105.42678,437.79982 C 105.10611,437.32963 103.9439,434.54104 103.33445,432.39203 C 103.10024,431.32053 102.49079,427.85907 102.40434,426.14022 C 101.56068,419.83809 101.93804,413.37971 103.15942,406.63856 C 103.53678,405.82644 103.3915,405.67868 103.3915,405.67868 L 150.79776,405.70845 C 150.79776,405.70845 149.92682,414.16845 149.9541,417.91868 C 150.24536,418.7875 150.2156,419.63116 150.79776,420.56128 C 152.74481,425.15093 157.22036,428.09116 162.07575,429.08045 C 171.28871,431.5799 181.2865,431.11148 189.94882,430.27207 C 190.82225,430.18136 194.7454,429.57191 195.73256,429.08045 C 197.5928,428.4097 199.30741,427.62096 201.02449,426.92896 C 204.83142,424.48868 207.94032,420.129 207.15583,415.26935 C 207.0102,414.65778 206.77847,413.75919 206.51662,413.14974 C 205.67508,411.83553 205.26618,410.73888 203.95835,409.68829 C 202.56406,408.52608 200.44233,407.4273 198.63878,406.63856 C 198.63878,406.63856 195.82115,405.35837 194.65894,405.29919 C 193.17607,404.68762 191.51815,404.43002 189.91941,403.99774 C 187.27433,403.20687 184.28166,402.48758 181.40449,401.86963 C 180.06725,401.75766 175.82378,400.50723 175.61898,400.56604 C 174.40008,400.35522 171.98709,399.89742 170.30189,399.45876 C 168.23685,399.19726 150.62272,395.24683 145.59441,393.38624 C 144.17071,392.91817 142.83347,392.48589 141.23473,391.93526 C 139.86808,391.37435 135.65367,389.37663 133.15457,388.18502 C 131.14871,386.9027 129.40646,385.97683 127.98064,384.19667 C 124.78493,381.72664 122.89528,378.18545 120.94646,374.92667 C 120.30725,373.96679 119.40654,371.4149 118.97001,369.90262 C 117.75075,364.52388 117.25505,359.84353 117.92367,354.23305 C 118.09906,352.63219 118.36056,350.71278 118.59229,349.61187 C 118.91296,347.51742 119.55217,345.51156 120.13434,343.54148 C 120.80296,341.29963 121.55804,339.7303 122.28371,337.78148 C 122.86587,336.41872 123.41827,334.87916 124.26193,333.59896 C 124.92843,331.97046 125.48119,330.95175 126.52717,329.61876 C 127.77796,327.34927 129.43375,325.22967 131.17812,323.07817 C 135.36276,318.77731 140.97323,314.46829 146.5543,311.82746 C 148.2689,310.54727 150.36123,310.05794 152.135,309.15723 C 157.36599,306.99971 163.47004,305.57813 168.81902,304.79542 C 172.10296,304.29581 179.42839,303.45605 179.42839,303.45605 C 189.60087,303.07656 198.93004,302.52593 209.24815,302.9079 C 217.59016,303.25372 225.6115,304.29758 233.51874,305.57601 z "
         style="fill:white;fill-rule:evenodd"
         id="_93856624" />
    </g>
  </g>
</svg>
