<?xml version="1.0" encoding="utf-8"?>
<!-- Generator: Adobe Illustrator 24.1.2, SVG Export Plug-In . SVG Version: 6.00 Build 0)  -->
<svg version="1.1" id="Слой_2" xmlns="http://www.w3.org/2000/svg" xmlns:xlink="http://www.w3.org/1999/xlink" x="0px" y="0px"
	 viewBox="0 0 1017.5 1080" style="enable-background:new 0 0 1017.5 1080;" xml:space="preserve">
<style type="text/css">
	.st0{fill:#E4002B;}
	.st1{fill:#FFFFFF;}
</style>
<polygon class="st0" points="975,181.9 987.5,839.3 975,919.1 906.1,967.7 316,1056.9 255,1045.9 37.4,916 20.2,726.6 34.3,189.7 
	106.3,114.6 732.4,20.7 967.5,156.9 "/>
<g id="Ebene-1" transform="matrix(4.16667,0,0,4.16667,0.000918722,-16.1525)">
	<g transform="matrix(1,0,0,1,47.0918,70.4296)">
		<path class="st1" d="M127.5-54.4l-0.3,0l-0.1,0l-0.3,0c-0.4,0-0.7,0-1.1,0.1L-19.1-33.9c-0.4,0.1-0.8,0.1-1.2,0.2l-0.2,0l0,0
			l-0.2,0.1c-0.3,0.1-0.6,0.2-0.9,0.3l-0.1,0l-0.4,0.1c-0.3,0.1-0.6,0.2-1,0.4c-0.2,0.1-0.5,0.2-0.7,0.3c-0.2,0.1-0.5,0.2-0.8,0.4
			l-0.2,0.1l-0.3,0.2l-0.1,0.1l-0.1,0.1l-0.3,0.2l-0.1,0c-0.1,0.1-0.3,0.2-0.4,0.3c0.1,0,0.1-0.1,0.2-0.1c-0.6,0.4-1.2,0.9-1.7,1.4
			c-0.1,0.1-0.2,0.2-0.3,0.3c-0.5,0.4-0.9,0.8-1.2,1.2c-0.1,0.1-0.2,0.2-0.3,0.3c-0.1,0.1-0.1,0.2-0.2,0.2c-0.4,0.5-0.8,1-1.2,1.5
			l-0.2,0.3l0,0c-0.4,0.5-0.7,1.1-1.1,1.8l-0.1,0.1l-0.1,0.1c0,0.1-0.1,0.2-0.2,0.3l-0.2,0.5l-0.1,0.3l-0.1,0.2
			c-0.2,0.4-0.3,0.7-0.5,1.1c-0.1,0.2-0.2,0.4-0.2,0.6c0,0.1-0.1,0.3-0.1,0.4l-0.1,0.3l-0.2,0.8l-0.1,0.2c0,0.1-0.1,0.3-0.1,0.5
			l-0.1,0.3l-0.2,0.6l-0.1,0.2c0,0.2,0,0.4-0.1,0.6l-0.1,0.5c0,0.1-0.1,0.4-0.1,0.7l0-0.2c-0.1,0.7-0.1,1.3-0.1,1.8l-0.3,156.4
			c0,5.1,2.2,9.4,5.8,11.4l22.5,12.2l24.6,13.4l0,0c1.5,0.8,3.1,1.2,4.9,1.2c0.5,0,1.1,0,1.7-0.1L169.1,160
			c8.3-1.2,15.7-10.4,15.7-19.8l0.3-156.4c0-5.4-2.4-9.8-6.3-11.7c0.1,0.1,0.3,0.1,0.4,0.2l-27.4-14.9l-19.7-10.7l-0.2-0.1l-0.1,0
			l-0.1,0l-0.1,0c-0.2-0.1-0.4-0.2-0.6-0.2l-0.1,0l-0.2-0.1c-0.2-0.1-0.4-0.2-0.7-0.2l-0.2,0c-0.3-0.1-0.5-0.1-0.8-0.2l0.1,0l-0.3,0
			c-0.2,0-0.5-0.1-0.7-0.1l-0.3,0L127.5-54.4z M127.5-66.6c0.3,0,0.5,0,0.8,0c0.2,0,0.5,0,0.7,0c0.5,0,0.9,0.1,1.4,0.1
			c0.2,0,0.5,0.1,0.7,0.1c0.5,0.1,1.1,0.2,1.6,0.3c0.1,0,0.2,0,0.3,0.1c0,0,0,0,0,0c0.7,0.2,1.3,0.4,1.9,0.6
			c0.2,0.1,0.4,0.1,0.5,0.2c0.4,0.2,0.9,0.4,1.3,0.6c0.1,0,0.2,0.1,0.3,0.1c0.3,0.1,0.5,0.3,0.8,0.4c15.7,8.5,31.4,17.1,47.1,25.6
			c-0.4-0.2-0.7-0.4-1.1-0.5c0,0,0,0-0.1,0c8,3.7,13.4,12.2,13.3,22.7L197,140.2c0,15.5-11.8,29.8-26.1,31.8L26,192.4
			c-1.1,0.2-2.3,0.2-3.3,0.2c-3.9,0-7.6-1-10.8-2.8c0.1,0.1,0.2,0.1,0.3,0.2c-15.7-8.5-31.4-17.1-47.1-25.6
			c-7.3-4-12.2-12.1-12.2-22.1l0.3-156.4c0-1,0.1-1.9,0.1-2.9c0-0.3,0.1-0.7,0.1-1c0.1-0.6,0.1-1.2,0.3-1.8c0.1-0.4,0.2-0.8,0.3-1.1
			c0.1-0.5,0.2-1.1,0.4-1.6c0.1-0.4,0.3-0.8,0.4-1.2c0.1-0.5,0.3-0.9,0.4-1.4c0,0,0-0.1,0-0.1c0.1-0.2,0.2-0.4,0.3-0.6
			c0.2-0.6,0.5-1.2,0.8-1.8c0.1-0.3,0.3-0.6,0.4-0.9c0.2-0.3,0.3-0.7,0.5-1c0.1-0.1,0.1-0.2,0.2-0.3c0.6-1.1,1.2-2.1,1.9-3.1
			c0,0,0,0,0-0.1c0.1-0.1,0.2-0.2,0.2-0.3c0.6-0.8,1.2-1.6,1.9-2.4c0.1-0.1,0.2-0.2,0.3-0.4c0.1-0.1,0.3-0.3,0.4-0.4
			c0.6-0.7,1.2-1.3,1.9-1.9c0.1-0.1,0.3-0.3,0.4-0.4c0.1,0,0.1-0.1,0.2-0.1c0.9-0.8,1.8-1.5,2.8-2.2c0.1-0.1,0.2-0.1,0.2-0.2
			c0.3-0.2,0.7-0.4,1-0.6c0.3-0.2,0.5-0.4,0.8-0.5c0.5-0.3,1.1-0.6,1.7-0.9c0.2-0.1,0.4-0.2,0.6-0.3c0,0,0.1,0,0.1-0.1
			c0.7-0.3,1.4-0.6,2.1-0.9c0.2-0.1,0.4-0.1,0.6-0.2c0.6-0.2,1.2-0.4,1.8-0.5c0.2-0.1,0.4-0.1,0.7-0.2c0.8-0.2,1.6-0.4,2.4-0.5
			l144.9-20.4c0.7-0.1,1.4-0.2,2.1-0.2c0.2,0,0.4,0,0.7,0C127.1-66.5,127.3-66.6,127.5-66.6"/>
	</g>
	<g transform="matrix(1,0,0,1,17.0205,29.3913)">
		<path class="st1" d="M46,131.5c-17.3,0-25.1-8.7-25.1-19.9l0.9-0.9h10.4l0.9,0.9c0,6.1,3.5,9.5,13.8,9.5c7.8,0,12.1-2.6,12.1-7.8
			c0-6.1-3.5-7.8-15.6-9.5c-12.1-1.7-21.6-6.1-21.6-18.2c0-8.7,6.9-16.4,23.4-16.4c16.4,0,23.4,7.8,23.4,18.2l-0.9,0.9H57.3
			l-0.9-0.9c0-5.2-2.6-7.8-12.1-7.8c-7.8,0-10.4,2.6-10.4,6.1c0,5.2,3.5,6.9,15.6,8.7c12.1,1.7,21.6,6.9,21.6,19
			C71.1,122.8,64.2,131.5,46,131.5"/>
	</g>
	<g transform="matrix(1,0,0,1,33.8057,43.1475)">
		<path class="st1" d="M91.5,66.7H75.1l-0.9,0.9v13.8l0.9,0.9h16.4c5.2,0,8.7-1.7,8.7-7.8C100.2,68.4,96.7,66.7,91.5,66.7
			 M91.5,92.6H75.1l-0.9,0.9V116l-0.9,0.9H63l-0.9-0.9V57.2l0.9-0.9h28.6c12.1,0,20.8,6.1,20.8,18.2S103.6,92.6,91.5,92.6"/>
	</g>
</g>
</svg>
