<svg id="Ebene_1" data-name="Ebene 1" xmlns="http://www.w3.org/2000/svg" viewBox="0 0 666.35 672.57"><defs><style>.cls-1{fill:#f29206;}.cls-2{fill:#163d6d;}</style></defs><title>diemitte</title><path class="cls-1" d="M642.85,99.48c-15-35.18-36-64.76-57.82-97.21L523,46.81c44.63,58,74,130.67,74,210.74C597,338,569,407.83,523.43,470l60.06,42.49c24.94-31,44.25-61.43,59.36-96.88C664.2,365.54,677,312.36,677,257.55S664.2,149.57,642.85,99.48Z" transform="translate(-10.68 -2.27)"/><path class="cls-2" d="M246.33,233.22v-116h41.56c33.05,0,55.26,21.43,55.26,58.08s-22.37,57.92-55.42,57.92Zm40.58-20.94c17,0,32.85-11.78,32.85-37s-15.29-37.14-32.69-37.14H268.91v74.12Z" transform="translate(-10.68 -2.27)"/><path class="cls-2" d="M195.86,381.13V304.39l-31.7,76.74H146.29L114.59,305v76.12H94.09V266H120l35.47,84.74L190.1,266H217V381.13Z" transform="translate(-10.68 -2.27)"/><path class="cls-2" d="M249.33,260.72a13.42,13.42,0,1,1-13.42,13.57A13.4,13.4,0,0,1,249.33,260.72Zm-10.8,120.41V298.64h21.76v82.49Z" transform="translate(-10.68 -2.27)"/><path class="cls-2" d="M285.64,299.64V277.59h21.6v22.05h78.19v19.3H307.24v35.71c0,7,3.27,9.32,9.49,9.32,2.61,0,4.27-1.67,5.36-2.69l9.48,15.23c-2.3,1.66-5.83,6.77-20.41,6.77-15.7,0-25.52-9.33-25.52-24.87V318.94H271.08v-19.3h14.56" transform="translate(-10.68 -2.27)"/><path class="cls-2" d="M472.28,358.06c-4.09,13.91-16.85,25.53-36.65,25.53-22.08,0-41.55-15.87-41.55-43,0-25.69,19-42.38,39.59-42.38,24.87,0,39.76,15.87,39.76,41.72,0,3.11-.33,6.38-.33,6.71H415.51c.49,10.64,9.49,18.33,20.29,18.33,10.14,0,15.71-5.08,18.32-12.27ZM452,331.72c-.33-8-5.57-15.87-18-15.87-11.29,0-17.51,8.51-18,15.87Z" transform="translate(-10.68 -2.27)"/><path class="cls-2" d="M285.64,299.64" transform="translate(-10.68 -2.27)"/><path class="cls-2" d="M342.82,299.64m21.59,19.3v35.71c0,7,3.28,9.32,9.49,9.32,2.62,0,4.28-1.67,5.36-2.69l9.49,15.23c-2.31,1.66-5.83,6.77-20.41,6.77-15.71,0-25.52-9.33-25.52-24.87V277.59h21.59v41.35Z" transform="translate(-10.68 -2.27)"/><path class="cls-2" d="M368.5,112.8a13.42,13.42,0,1,1-13.41,13.58A13.41,13.41,0,0,1,368.5,112.8ZM357.7,233.22v-82.5h21.76v82.5Z" transform="translate(-10.68 -2.27)"/><path class="cls-2" d="M472.31,209.15c-4.1,13.91-16.86,25.53-36.65,25.53-22.09,0-41.56-15.88-41.56-43,0-25.69,19-42.38,39.59-42.38,24.87,0,39.76,15.87,39.76,41.72,0,3.11-.33,6.38-.33,6.71H415.53C416,208.33,425,216,435.82,216c10.14,0,15.71-5.07,18.32-12.27ZM452,182.81c-.33-8-5.57-15.87-18-15.87-11.29,0-17.51,8.51-18,15.87Z" transform="translate(-10.68 -2.27)"/><path class="cls-2" d="M10.68,601.48v-39.3H34.57v5H16.11v12.64H32.85V585H16.11v16.52Z" transform="translate(-10.68 -2.27)"/><path class="cls-2" d="M53.36,580.08a16.32,16.32,0,0,0-2.27-.17c-4.38,0-7.32,2.33-7.32,8.21v13.36H38.56V574.81h5.1v4.66a8.35,8.35,0,0,1,8-5.1,9.25,9.25,0,0,1,1.72.17Z" transform="translate(-10.68 -2.27)"/><path class="cls-2" d="M81.14,593.88a12.09,12.09,0,0,1-12,8.43c-7.15,0-13.41-5.21-13.41-14.25,0-8.37,6-14.08,12.75-14.08,8.2,0,12.8,5.66,12.8,14a11.22,11.22,0,0,1-.11,1.67H61.12a7.92,7.92,0,0,0,8,8.09,7.26,7.26,0,0,0,7.49-5.38Zm-5.27-8.48c-.11-3.82-2.61-6.82-7.32-6.82a7.17,7.17,0,0,0-7.26,6.82Z" transform="translate(-10.68 -2.27)"/><path class="cls-2" d="M89.78,561a3.74,3.74,0,1,1-3.71,3.77A3.73,3.73,0,0,1,89.78,561Zm-2.55,40.52V574.81h5.16v26.67Z" transform="translate(-10.68 -2.27)"/><path class="cls-2" d="M105.75,601.48h-5.21V561.34h5.21v16.58a9.42,9.42,0,0,1,8.09-3.88c6.38,0,9.54,4.6,9.54,10.53v16.91h-5.21v-16c0-3.72-1.55-6.71-6.21-6.71-4,0-6.1,3.1-6.21,7Z" transform="translate(-10.68 -2.27)"/><path class="cls-2" d="M154.2,593.88a12.08,12.08,0,0,1-12,8.43c-7.15,0-13.42-5.21-13.42-14.25,0-8.37,6-14.08,12.75-14.08,8.21,0,12.81,5.66,12.81,14a12.78,12.78,0,0,1-.11,1.67H134.19a7.92,7.92,0,0,0,8,8.09,7.26,7.26,0,0,0,7.48-5.38Zm-5.27-8.48c-.11-3.82-2.6-6.82-7.31-6.82a7.17,7.17,0,0,0-7.26,6.82Z" transform="translate(-10.68 -2.27)"/><path class="cls-2" d="M162.85,561a3.74,3.74,0,1,1-3.72,3.77A3.73,3.73,0,0,1,162.85,561Zm-2.55,40.52V574.81h5.15v26.67Z" transform="translate(-10.68 -2.27)"/><path class="cls-2" d="M180.59,574.81h5.76v4.72h-5.76v13.86c0,2.43,1,3.65,3.71,3.65a10.54,10.54,0,0,0,2-.22v4.44a11.53,11.53,0,0,1-3.54.5c-4.55,0-7.43-2.78-7.43-7.6V579.53h-5.1v-4.72h5.54v-8.42h4.77Z" transform="translate(-10.68 -2.27)"/><path class="cls-2" d="M195.83,594.05a3.85,3.85,0,0,1,3.88,3.88,3.81,3.81,0,0,1-3.88,3.83,3.77,3.77,0,0,1-3.82-3.83A3.81,3.81,0,0,1,195.83,594.05Z" transform="translate(-10.68 -2.27)"/><path class="cls-2" d="M241.18,572.82a8,8,0,0,0-8.31-6.71c-4.44,0-7.6,2.88-7.6,6.54,0,2.83,1.72,5,5,5.71l5.87,1.28c6.54,1.44,10.2,5.54,10.2,11,0,6.1-5.21,11.64-13.58,11.64-9.48,0-14-6.1-14.69-11.7l5.21-1.66c.39,4.38,3.49,8.43,9.42,8.43,5.44,0,8.1-2.83,8.1-6.27,0-2.82-1.94-5.26-5.88-6.1l-5.6-1.21c-5.6-1.22-9.59-4.88-9.59-10.76,0-6.15,5.71-11.7,13-11.7,8.87,0,12.42,5.49,13.31,9.76Z" transform="translate(-10.68 -2.27)"/><path class="cls-2" d="M277.1,588.12c0,8.15-5.65,14.19-13.63,14.19s-13.64-6-13.64-14.19S255.48,574,263.47,574,277.1,580,277.1,588.12Zm-5.32,0c0-6.15-3.88-9.48-8.31-9.48s-8.32,3.33-8.32,9.48,3.88,9.53,8.32,9.53S271.78,594.33,271.78,588.12Z" transform="translate(-10.68 -2.27)"/><path class="cls-2" d="M283,601.48V561.34h5.21v40.14Z" transform="translate(-10.68 -2.27)"/><path class="cls-2" d="M299,561a3.74,3.74,0,1,1-3.72,3.77A3.74,3.74,0,0,1,299,561Zm-2.55,40.52V574.81h5.15v26.67Z" transform="translate(-10.68 -2.27)"/><path class="cls-2" d="M328.38,597.43a8.92,8.92,0,0,1-8.26,4.77c-7.82,0-12.64-6.21-12.64-14.14,0-7.54,5.1-14,12.64-14,4.71,0,7.26,2.33,8.15,4.49V561.34h5.16v35.21a44.17,44.17,0,0,0,.27,4.93h-5a22.39,22.39,0,0,1-.28-3.6Zm-7.76.17c4.77,0,7.71-4.16,7.71-9.65s-2.89-9.25-7.65-9.25-7.88,3.88-7.88,9.36S315.63,597.6,320.62,597.6Z" transform="translate(-10.68 -2.27)"/><path class="cls-2" d="M348,586.23l7.2-1.05c1.61-.22,2.05-1,2.05-2,0-2.61-1.71-4.77-5.76-4.77a5.65,5.65,0,0,0-6,5.38l-5-1.17c.55-5.1,5.15-8.65,10.92-8.65,8,0,11.09,4.55,11.09,9.76V597.1a25.32,25.32,0,0,0,.33,4.38h-5.1a19.5,19.5,0,0,1-.28-3.6,9.72,9.72,0,0,1-8.59,4.43c-5.43,0-8.93-3.77-8.93-8C339.91,589.56,343.41,586.9,348,586.23Zm9.25,3.83v-1.22l-8.14,1.22c-2.22.33-3.88,1.61-3.88,4a4,4,0,0,0,4.32,3.88C353.83,597.93,357.26,595.88,357.26,590.06Z" transform="translate(-10.68 -2.27)"/><path class="cls-2" d="M384.65,580.08a16.43,16.43,0,0,0-2.27-.17c-4.38,0-7.32,2.33-7.32,8.21v13.36h-5.21V574.81H375v4.66a8.35,8.35,0,0,1,8-5.1,9.35,9.35,0,0,1,1.72.17Z" transform="translate(-10.68 -2.27)"/><path class="cls-2" d="M392,561a3.74,3.74,0,1,1-3.71,3.77A3.73,3.73,0,0,1,392,561Zm-2.55,40.52V574.81h5.16v26.67Z" transform="translate(-10.68 -2.27)"/><path class="cls-2" d="M409.76,574.81h5.77v4.72h-5.77v13.86c0,2.43,1,3.65,3.72,3.65a10.72,10.72,0,0,0,2-.22v4.44a11.68,11.68,0,0,1-3.55.5c-4.55,0-7.43-2.78-7.43-7.6V579.53h-5.1v-4.72H405s0-1.77,0-4.1v-4.32h4.77Z" transform="translate(-10.68 -2.27)"/><path class="cls-2" d="M428.17,586.23l7.2-1.05c1.61-.22,2.05-1,2.05-2,0-2.61-1.71-4.77-5.76-4.77a5.65,5.65,0,0,0-6,5.38l-5-1.17c.55-5.1,5.15-8.65,10.92-8.65,8,0,11.09,4.55,11.09,9.76V597.1a25.32,25.32,0,0,0,.33,4.38h-5.1a19.5,19.5,0,0,1-.28-3.6,9.72,9.72,0,0,1-8.59,4.43c-5.43,0-8.93-3.77-8.93-8C420.07,589.56,423.57,586.9,428.17,586.23Zm-1.61-22.39a3.22,3.22,0,1,1,0,6.43,3.22,3.22,0,0,1,0-6.43Zm10.86,26.22v-1.22l-8.14,1.22c-2.22.33-3.88,1.61-3.88,4a4,4,0,0,0,4.32,3.88C434,597.93,437.42,595.88,437.42,590.06ZM437,563.84a3.22,3.22,0,1,1,0,6.43,3.22,3.22,0,0,1,0-6.43Z" transform="translate(-10.68 -2.27)"/><path class="cls-2" d="M457,574.81h5.77v4.72H457v13.86c0,2.43,1,3.65,3.72,3.65a10.63,10.63,0,0,0,2.05-.22v4.44a11.56,11.56,0,0,1-3.55.5c-4.54,0-7.43-2.78-7.43-7.6V579.53h-5.1v-4.72h1.44c2.89,0,4.11,0,4.11,0v-8.45H457Z" transform="translate(-10.68 -2.27)"/><path class="cls-2" d="M472.24,594.05a3.86,3.86,0,0,1,3.88,3.88,3.82,3.82,0,0,1-3.88,3.83,3.77,3.77,0,0,1-3.83-3.83A3.82,3.82,0,0,1,472.24,594.05Z" transform="translate(-10.68 -2.27)"/><path class="cls-2" d="M128.81,624.18h5.71l-15.13,39.3H114l-14.8-39.3H105l11.87,32.31Z" transform="translate(-10.68 -2.27)"/><path class="cls-2" d="M159,655.88a12.09,12.09,0,0,1-12,8.43c-7.15,0-13.41-5.21-13.41-14.25,0-8.37,6-14.08,12.75-14.08,8.2,0,12.8,5.66,12.8,14a11.22,11.22,0,0,1-.11,1.67H139a7.91,7.91,0,0,0,8,8.09,7.26,7.26,0,0,0,7.49-5.38Zm-5.27-8.48c-.11-3.82-2.6-6.82-7.32-6.82a7.17,7.17,0,0,0-7.26,6.82Z" transform="translate(-10.68 -2.27)"/><path class="cls-2" d="M179.87,642.08a16.46,16.46,0,0,0-2.28-.17c-4.37,0-7.31,2.33-7.31,8.21v13.36h-5.21V636.81h5.1v4.66a8.35,8.35,0,0,1,8-5.1,9.35,9.35,0,0,1,1.72.17Z" transform="translate(-10.68 -2.27)"/><path class="cls-2" d="M191.12,648.23l7.21-1.05c1.61-.22,2-1,2-2,0-2.6-1.72-4.76-5.77-4.76a5.66,5.66,0,0,0-6,5.38l-5-1.17c.56-5.1,5.16-8.65,10.92-8.65,8,0,11.09,4.55,11.09,9.76V659.1a25.32,25.32,0,0,0,.33,4.38h-5.1a19.5,19.5,0,0,1-.28-3.6,9.72,9.72,0,0,1-8.59,4.43c-5.43,0-8.92-3.77-8.92-8C183,651.56,186.52,648.9,191.12,648.23Zm9.26,3.83v-1.22l-8.15,1.22c-2.22.33-3.88,1.61-3.88,4a4,4,0,0,0,4.32,3.88C196.94,659.93,200.38,657.88,200.38,652.06Z" transform="translate(-10.68 -2.27)"/><path class="cls-2" d="M218.17,663.48H213V636.81h5.1v3.83a9.13,9.13,0,0,1,8.21-4.6c6.37,0,9.53,4.6,9.53,10.53v16.91h-5.21v-16c0-3.72-1.55-6.71-6.21-6.71-4.1,0-6.21,3.27-6.21,7.32Z" transform="translate(-10.68 -2.27)"/><path class="cls-2" d="M250.38,636.81h5.77v4.72h-5.77v13.86c0,2.43,1,3.65,3.72,3.65a10.72,10.72,0,0,0,2-.22v4.44a11.68,11.68,0,0,1-3.55.5c-4.55,0-7.43-2.78-7.43-7.6V641.53h-5.1v-4.72h5.55v-8.42h4.76Z" transform="translate(-10.68 -2.27)"/><path class="cls-2" d="M283.31,636.81l6.93,20.07,5.88-20.07h5.49L293,663.48h-5.38l-7.1-20.29-6.93,20.29h-5.48l-8.76-26.67H265l6,20.07,6.93-20.07Z" transform="translate(-10.68 -2.27)"/><path class="cls-2" d="M330.65,650.12c0,8.15-5.65,14.19-13.63,14.19s-13.64-6-13.64-14.19S309,636,317,636,330.65,642,330.65,650.12Zm-5.32,0c0-6.15-3.88-9.48-8.31-9.48s-8.32,3.33-8.32,9.48,3.88,9.53,8.32,9.53S325.33,656.33,325.33,650.12Z" transform="translate(-10.68 -2.27)"/><path class="cls-2" d="M351.39,642.08a16.43,16.43,0,0,0-2.27-.17c-4.38,0-7.32,2.33-7.32,8.21v13.36h-5.21V636.81h5.1v4.66a8.35,8.35,0,0,1,8-5.1,9.35,9.35,0,0,1,1.72.17Z" transform="translate(-10.68 -2.27)"/><path class="cls-2" d="M364.58,636.81h5.77v4.72h-5.77v13.86c0,2.43,1,3.65,3.72,3.65a10.72,10.72,0,0,0,2.05-.22v4.44a11.68,11.68,0,0,1-3.55.5c-4.55,0-7.43-2.78-7.43-7.6V641.53h-5.1v-4.72h5.54v-8.42h4.77Z" transform="translate(-10.68 -2.27)"/><path class="cls-2" d="M386.26,664.31c-6.21,0-10-4.66-10-10.7v-16.8h5.21v16c0,3.65,1.66,6.87,6,6.87,4.22,0,6.32-2.77,6.32-6.82V636.81h5.21v21.74a44.9,44.9,0,0,0,.28,4.93h-5a23.86,23.86,0,0,1-.22-3.22C392.69,663,389.36,664.31,386.26,664.31Z" transform="translate(-10.68 -2.27)"/><path class="cls-2" d="M412.42,663.48h-5.21V636.81h5.1v3.83a9.13,9.13,0,0,1,8.21-4.6c6.37,0,9.53,4.6,9.53,10.53v16.91h-5.21v-16c0-3.72-1.55-6.71-6.21-6.71-4.1,0-6.21,3.27-6.21,7.32Z" transform="translate(-10.68 -2.27)"/><path class="cls-2" d="M440.75,663.76A7.09,7.09,0,0,0,448,670.3c5.6,0,8.15-2.89,8.15-8.65v-3.83c-1.27,2.44-4.16,4.38-8.15,4.38-7.09,0-12.25-5.37-12.25-12.91,0-7.21,4.94-13,12.25-13,4.11,0,6.88,1.55,8.21,4.21v-3.72h5.15v24.67c0,6.77-3.32,13.36-13.36,13.36-6.65,0-11.64-4.21-12.3-9.92Zm15.63-14.47c0-5.16-3.1-8.54-7.59-8.54s-7.71,3.38-7.71,8.54,3,8.53,7.71,8.53C453.28,657.82,456.38,654.44,456.38,649.29Z" transform="translate(-10.68 -2.27)"/><path class="cls-2" d="M472.24,656.05a3.86,3.86,0,0,1,3.88,3.88,3.82,3.82,0,0,1-3.88,3.83,3.77,3.77,0,0,1-3.83-3.83A3.82,3.82,0,0,1,472.24,656.05Z" transform="translate(-10.68 -2.27)"/></svg>